G04 #@! TF.GenerationSoftware,KiCad,Pcbnew,(5.1.4)-1*
G04 #@! TF.CreationDate,2021-04-20T00:23:46+05:30*
G04 #@! TF.ProjectId,transformers-board,7472616e-7366-46f7-926d-6572732d626f,rev?*
G04 #@! TF.SameCoordinates,Original*
G04 #@! TF.FileFunction,Legend,Top*
G04 #@! TF.FilePolarity,Positive*
%FSLAX46Y46*%
G04 Gerber Fmt 4.6, Leading zero omitted, Abs format (unit mm)*
G04 Created by KiCad (PCBNEW (5.1.4)-1) date 2021-04-20 00:23:46*
%MOMM*%
%LPD*%
G04 APERTURE LIST*
%ADD10C,0.500000*%
%ADD11C,0.100000*%
%ADD12C,0.120000*%
%ADD13C,0.200000*%
%ADD14C,0.127000*%
%ADD15C,0.010000*%
%ADD16C,0.254000*%
%ADD17C,0.150000*%
%ADD18C,0.015000*%
G04 APERTURE END LIST*
D10*
X76884000Y-56483428D02*
X76741142Y-56626285D01*
X76312571Y-56769142D01*
X76026857Y-56769142D01*
X75598285Y-56626285D01*
X75312571Y-56340571D01*
X75169714Y-56054857D01*
X75026857Y-55483428D01*
X75026857Y-55054857D01*
X75169714Y-54483428D01*
X75312571Y-54197714D01*
X75598285Y-53912000D01*
X76026857Y-53769142D01*
X76312571Y-53769142D01*
X76741142Y-53912000D01*
X76884000Y-54054857D01*
X79884000Y-56483428D02*
X79741142Y-56626285D01*
X79312571Y-56769142D01*
X79026857Y-56769142D01*
X78598285Y-56626285D01*
X78312571Y-56340571D01*
X78169714Y-56054857D01*
X78026857Y-55483428D01*
X78026857Y-55054857D01*
X78169714Y-54483428D01*
X78312571Y-54197714D01*
X78598285Y-53912000D01*
X79026857Y-53769142D01*
X79312571Y-53769142D01*
X79741142Y-53912000D01*
X79884000Y-54054857D01*
X82741142Y-56769142D02*
X81026857Y-56769142D01*
X81884000Y-56769142D02*
X81884000Y-53769142D01*
X81598285Y-54197714D01*
X81312571Y-54483428D01*
X81026857Y-54626285D01*
X83741142Y-53769142D02*
X85598285Y-53769142D01*
X84598285Y-54912000D01*
X85026857Y-54912000D01*
X85312571Y-55054857D01*
X85455428Y-55197714D01*
X85598285Y-55483428D01*
X85598285Y-56197714D01*
X85455428Y-56483428D01*
X85312571Y-56626285D01*
X85026857Y-56769142D01*
X84169714Y-56769142D01*
X83884000Y-56626285D01*
X83741142Y-56483428D01*
X88455428Y-56769142D02*
X86741142Y-56769142D01*
X87598285Y-56769142D02*
X87598285Y-53769142D01*
X87312571Y-54197714D01*
X87026857Y-54483428D01*
X86741142Y-54626285D01*
X90312571Y-53769142D02*
X90598285Y-53769142D01*
X90884000Y-53912000D01*
X91026857Y-54054857D01*
X91169714Y-54340571D01*
X91312571Y-54912000D01*
X91312571Y-55626285D01*
X91169714Y-56197714D01*
X91026857Y-56483428D01*
X90884000Y-56626285D01*
X90598285Y-56769142D01*
X90312571Y-56769142D01*
X90026857Y-56626285D01*
X89884000Y-56483428D01*
X89741142Y-56197714D01*
X89598285Y-55626285D01*
X89598285Y-54912000D01*
X89741142Y-54340571D01*
X89884000Y-54054857D01*
X90026857Y-53912000D01*
X90312571Y-53769142D01*
X92598285Y-55626285D02*
X94884000Y-55626285D01*
X96884000Y-53769142D02*
X97169714Y-53769142D01*
X97455428Y-53912000D01*
X97598285Y-54054857D01*
X97741142Y-54340571D01*
X97884000Y-54912000D01*
X97884000Y-55626285D01*
X97741142Y-56197714D01*
X97598285Y-56483428D01*
X97455428Y-56626285D01*
X97169714Y-56769142D01*
X96884000Y-56769142D01*
X96598285Y-56626285D01*
X96455428Y-56483428D01*
X96312571Y-56197714D01*
X96169714Y-55626285D01*
X96169714Y-54912000D01*
X96312571Y-54340571D01*
X96455428Y-54054857D01*
X96598285Y-53912000D01*
X96884000Y-53769142D01*
X100741142Y-56769142D02*
X99026857Y-56769142D01*
X99884000Y-56769142D02*
X99884000Y-53769142D01*
X99598285Y-54197714D01*
X99312571Y-54483428D01*
X99026857Y-54626285D01*
X72098285Y-61626285D02*
X72526857Y-61769142D01*
X73241142Y-61769142D01*
X73526857Y-61626285D01*
X73669714Y-61483428D01*
X73812571Y-61197714D01*
X73812571Y-60912000D01*
X73669714Y-60626285D01*
X73526857Y-60483428D01*
X73241142Y-60340571D01*
X72669714Y-60197714D01*
X72383999Y-60054857D01*
X72241142Y-59912000D01*
X72098285Y-59626285D01*
X72098285Y-59340571D01*
X72241142Y-59054857D01*
X72383999Y-58912000D01*
X72669714Y-58769142D01*
X73383999Y-58769142D01*
X73812571Y-58912000D01*
X75098285Y-59769142D02*
X75098285Y-62769142D01*
X75098285Y-59912000D02*
X75383999Y-59769142D01*
X75955428Y-59769142D01*
X76241142Y-59912000D01*
X76383999Y-60054857D01*
X76526857Y-60340571D01*
X76526857Y-61197714D01*
X76383999Y-61483428D01*
X76241142Y-61626285D01*
X75955428Y-61769142D01*
X75383999Y-61769142D01*
X75098285Y-61626285D01*
X79098285Y-61769142D02*
X79098285Y-60197714D01*
X78955428Y-59912000D01*
X78669714Y-59769142D01*
X78098285Y-59769142D01*
X77812571Y-59912000D01*
X79098285Y-61626285D02*
X78812571Y-61769142D01*
X78098285Y-61769142D01*
X77812571Y-61626285D01*
X77669714Y-61340571D01*
X77669714Y-61054857D01*
X77812571Y-60769142D01*
X78098285Y-60626285D01*
X78812571Y-60626285D01*
X79098285Y-60483428D01*
X80526857Y-61769142D02*
X80526857Y-59769142D01*
X80526857Y-60340571D02*
X80669714Y-60054857D01*
X80812571Y-59912000D01*
X81098285Y-59769142D01*
X81383999Y-59769142D01*
X82241142Y-61626285D02*
X82526857Y-61769142D01*
X83098285Y-61769142D01*
X83383999Y-61626285D01*
X83526857Y-61340571D01*
X83526857Y-61197714D01*
X83383999Y-60912000D01*
X83098285Y-60769142D01*
X82669714Y-60769142D01*
X82383999Y-60626285D01*
X82241142Y-60340571D01*
X82241142Y-60197714D01*
X82383999Y-59912000D01*
X82669714Y-59769142D01*
X83098285Y-59769142D01*
X83383999Y-59912000D01*
X84812571Y-61769142D02*
X84812571Y-58769142D01*
X86098285Y-61769142D02*
X86098285Y-60197714D01*
X85955428Y-59912000D01*
X85669714Y-59769142D01*
X85241142Y-59769142D01*
X84955428Y-59912000D01*
X84812571Y-60054857D01*
X90812571Y-60197714D02*
X91241142Y-60340571D01*
X91384000Y-60483428D01*
X91526857Y-60769142D01*
X91526857Y-61197714D01*
X91384000Y-61483428D01*
X91241142Y-61626285D01*
X90955428Y-61769142D01*
X89812571Y-61769142D01*
X89812571Y-58769142D01*
X90812571Y-58769142D01*
X91098285Y-58912000D01*
X91241142Y-59054857D01*
X91384000Y-59340571D01*
X91384000Y-59626285D01*
X91241142Y-59912000D01*
X91098285Y-60054857D01*
X90812571Y-60197714D01*
X89812571Y-60197714D01*
X94098285Y-61769142D02*
X94098285Y-60197714D01*
X93955428Y-59912000D01*
X93669714Y-59769142D01*
X93098285Y-59769142D01*
X92812571Y-59912000D01*
X94098285Y-61626285D02*
X93812571Y-61769142D01*
X93098285Y-61769142D01*
X92812571Y-61626285D01*
X92669714Y-61340571D01*
X92669714Y-61054857D01*
X92812571Y-60769142D01*
X93098285Y-60626285D01*
X93812571Y-60626285D01*
X94098285Y-60483428D01*
X95526857Y-59769142D02*
X95526857Y-61769142D01*
X95526857Y-60054857D02*
X95669714Y-59912000D01*
X95955428Y-59769142D01*
X96383999Y-59769142D01*
X96669714Y-59912000D01*
X96812571Y-60197714D01*
X96812571Y-61769142D01*
X98098285Y-61626285D02*
X98383999Y-61769142D01*
X98955428Y-61769142D01*
X99241142Y-61626285D01*
X99383999Y-61340571D01*
X99383999Y-61197714D01*
X99241142Y-60912000D01*
X98955428Y-60769142D01*
X98526857Y-60769142D01*
X98241142Y-60626285D01*
X98098285Y-60340571D01*
X98098285Y-60197714D01*
X98241142Y-59912000D01*
X98526857Y-59769142D01*
X98955428Y-59769142D01*
X99241142Y-59912000D01*
X101955428Y-61769142D02*
X101955428Y-60197714D01*
X101812571Y-59912000D01*
X101526857Y-59769142D01*
X100955428Y-59769142D01*
X100669714Y-59912000D01*
X101955428Y-61626285D02*
X101669714Y-61769142D01*
X100955428Y-61769142D01*
X100669714Y-61626285D01*
X100526857Y-61340571D01*
X100526857Y-61054857D01*
X100669714Y-60769142D01*
X100955428Y-60626285D01*
X101669714Y-60626285D01*
X101955428Y-60483428D01*
X103812571Y-61769142D02*
X103526857Y-61626285D01*
X103383999Y-61340571D01*
X103383999Y-58769142D01*
D11*
X140716000Y-107722000D02*
G75*
G02X140716000Y-124942000I0J-8610000D01*
G01*
X140716000Y-124942000D02*
G75*
G02X140716000Y-107722000I0J8610000D01*
G01*
X140716000Y-124942000D02*
X140716000Y-124942000D01*
X140716000Y-107722000D02*
X140716000Y-107722000D01*
X152216000Y-104832000D02*
X149326000Y-104832000D01*
X152216000Y-127832000D02*
X152216000Y-104832000D01*
X149326000Y-127832000D02*
X152216000Y-127832000D01*
X149326000Y-104832000D02*
X149326000Y-127832000D01*
X132106000Y-104832000D02*
X129216000Y-104832000D01*
X132106000Y-127832000D02*
X132106000Y-104832000D01*
X129216000Y-127832000D02*
X132106000Y-127832000D01*
X129216000Y-104832000D02*
X129216000Y-127832000D01*
D12*
X169470000Y-71457078D02*
X169470000Y-70939922D01*
X170890000Y-71457078D02*
X170890000Y-70939922D01*
X174446000Y-71457078D02*
X174446000Y-70939922D01*
X173026000Y-71457078D02*
X173026000Y-70939922D01*
X164665922Y-66854000D02*
X165183078Y-66854000D01*
X164665922Y-68274000D02*
X165183078Y-68274000D01*
X167713922Y-61924000D02*
X168231078Y-61924000D01*
X167713922Y-60504000D02*
X168231078Y-60504000D01*
X143816000Y-71886578D02*
X143816000Y-71369422D01*
X145236000Y-71886578D02*
X145236000Y-71369422D01*
D13*
X204316000Y-115182000D02*
G75*
G03X204316000Y-115182000I-100000J0D01*
G01*
D14*
X201126000Y-117532000D02*
X202836000Y-117532000D01*
X199066000Y-119592000D02*
X201126000Y-117532000D01*
X199066000Y-127832000D02*
X199066000Y-119592000D01*
X202836000Y-127832000D02*
X199066000Y-127832000D01*
X209366000Y-127832000D02*
X205596000Y-127832000D01*
X209366000Y-119592000D02*
X209366000Y-127832000D01*
X207306000Y-117532000D02*
X209366000Y-119592000D01*
X205596000Y-117532000D02*
X207306000Y-117532000D01*
X202836000Y-110353000D02*
X201126000Y-110353000D01*
X201126000Y-110353000D02*
X199066000Y-108293000D01*
X199066000Y-108293000D02*
X199066000Y-100053000D01*
X199066000Y-100053000D02*
X202836000Y-100053000D01*
X205596000Y-100053000D02*
X209366000Y-100053000D01*
X209366000Y-100053000D02*
X209366000Y-108293000D01*
X209366000Y-108293000D02*
X207306000Y-110353000D01*
X207306000Y-110353000D02*
X205596000Y-110353000D01*
D13*
X204316000Y-112703000D02*
G75*
G03X204316000Y-112703000I-100000J0D01*
G01*
X189330000Y-114975000D02*
G75*
G03X189330000Y-114975000I-100000J0D01*
G01*
D14*
X186140000Y-117325000D02*
X187850000Y-117325000D01*
X184080000Y-119385000D02*
X186140000Y-117325000D01*
X184080000Y-127625000D02*
X184080000Y-119385000D01*
X187850000Y-127625000D02*
X184080000Y-127625000D01*
X194380000Y-127625000D02*
X190610000Y-127625000D01*
X194380000Y-119385000D02*
X194380000Y-127625000D01*
X192320000Y-117325000D02*
X194380000Y-119385000D01*
X190610000Y-117325000D02*
X192320000Y-117325000D01*
X187850000Y-110259000D02*
X186140000Y-110259000D01*
X186140000Y-110259000D02*
X184080000Y-108199000D01*
X184080000Y-108199000D02*
X184080000Y-99959000D01*
X184080000Y-99959000D02*
X187850000Y-99959000D01*
X190610000Y-99959000D02*
X194380000Y-99959000D01*
X194380000Y-99959000D02*
X194380000Y-108199000D01*
X194380000Y-108199000D02*
X192320000Y-110259000D01*
X192320000Y-110259000D02*
X190610000Y-110259000D01*
D13*
X189330000Y-112609000D02*
G75*
G03X189330000Y-112609000I-100000J0D01*
G01*
D12*
X136092000Y-80444078D02*
X136092000Y-79926922D01*
X134672000Y-80444078D02*
X134672000Y-79926922D01*
X140281922Y-81840000D02*
X140799078Y-81840000D01*
X140281922Y-83260000D02*
X140799078Y-83260000D01*
X116086000Y-115242000D02*
X116086000Y-111292000D01*
X116086000Y-104722000D02*
X116086000Y-108672000D01*
X106630437Y-104722000D02*
X116086000Y-104722000D01*
X106630437Y-115242000D02*
X116086000Y-115242000D01*
X105566000Y-114177563D02*
X105566000Y-111292000D01*
X105566000Y-105786437D02*
X105566000Y-108672000D01*
X105566000Y-105786437D02*
X106630437Y-104722000D01*
X105566000Y-114177563D02*
X106630437Y-115242000D01*
D13*
X95604000Y-112863000D02*
G75*
G03X95604000Y-112863000I-100000J0D01*
G01*
D14*
X98594000Y-110513000D02*
X96884000Y-110513000D01*
X100654000Y-108453000D02*
X98594000Y-110513000D01*
X100654000Y-100213000D02*
X100654000Y-108453000D01*
X96884000Y-100213000D02*
X100654000Y-100213000D01*
X90354000Y-100213000D02*
X94124000Y-100213000D01*
X90354000Y-108453000D02*
X90354000Y-100213000D01*
X92414000Y-110513000D02*
X90354000Y-108453000D01*
X94124000Y-110513000D02*
X92414000Y-110513000D01*
X96884000Y-116817000D02*
X98594000Y-116817000D01*
X98594000Y-116817000D02*
X100654000Y-118877000D01*
X100654000Y-118877000D02*
X100654000Y-127117000D01*
X100654000Y-127117000D02*
X96884000Y-127117000D01*
X94124000Y-127117000D02*
X90354000Y-127117000D01*
X90354000Y-127117000D02*
X90354000Y-118877000D01*
X90354000Y-118877000D02*
X92414000Y-116817000D01*
X92414000Y-116817000D02*
X94124000Y-116817000D01*
D13*
X95604000Y-114467000D02*
G75*
G03X95604000Y-114467000I-100000J0D01*
G01*
X79856000Y-114213000D02*
G75*
G03X79856000Y-114213000I-100000J0D01*
G01*
D14*
X76666000Y-116563000D02*
X78376000Y-116563000D01*
X74606000Y-118623000D02*
X76666000Y-116563000D01*
X74606000Y-126863000D02*
X74606000Y-118623000D01*
X78376000Y-126863000D02*
X74606000Y-126863000D01*
X84906000Y-126863000D02*
X81136000Y-126863000D01*
X84906000Y-118623000D02*
X84906000Y-126863000D01*
X82846000Y-116563000D02*
X84906000Y-118623000D01*
X81136000Y-116563000D02*
X82846000Y-116563000D01*
X78376000Y-110513000D02*
X76666000Y-110513000D01*
X76666000Y-110513000D02*
X74606000Y-108453000D01*
X74606000Y-108453000D02*
X74606000Y-100213000D01*
X74606000Y-100213000D02*
X78376000Y-100213000D01*
X81136000Y-100213000D02*
X84906000Y-100213000D01*
X84906000Y-100213000D02*
X84906000Y-108453000D01*
X84906000Y-108453000D02*
X82846000Y-110513000D01*
X82846000Y-110513000D02*
X81136000Y-110513000D01*
D13*
X79856000Y-112863000D02*
G75*
G03X79856000Y-112863000I-100000J0D01*
G01*
D12*
X205666000Y-69924000D02*
X205666000Y-70424000D01*
X206406000Y-69924000D02*
X205666000Y-69924000D01*
X209543000Y-76497000D02*
X209497000Y-76450000D01*
X211841000Y-78794000D02*
X211805000Y-78759000D01*
X209327000Y-76690000D02*
X209292000Y-76655000D01*
X211635000Y-78999000D02*
X211589000Y-78952000D01*
X215827000Y-80284000D02*
X205906000Y-80284000D01*
X215827000Y-70164000D02*
X205906000Y-70164000D01*
X205906000Y-70164000D02*
X205906000Y-80284000D01*
X215827000Y-70164000D02*
X215827000Y-80284000D01*
X212867000Y-70164000D02*
X212867000Y-80284000D01*
X207966000Y-70164000D02*
X207966000Y-80284000D01*
X206466000Y-70164000D02*
X206466000Y-80284000D01*
X212246000Y-77724000D02*
G75*
G03X212246000Y-77724000I-1680000J0D01*
G01*
X208885747Y-72752805D02*
G75*
G02X209031000Y-72040000I1680253J28805D01*
G01*
X209882958Y-71188574D02*
G75*
G02X211250000Y-71189000I683042J-1535426D01*
G01*
X212101426Y-72040958D02*
G75*
G02X212101000Y-73408000I-1535426J-683042D01*
G01*
X211249042Y-74259426D02*
G75*
G02X209882000Y-74259000I-683042J1535426D01*
G01*
X209031244Y-73407318D02*
G75*
G02X208886000Y-72724000I1534756J683318D01*
G01*
X164767318Y-50302756D02*
G75*
G02X164084000Y-50448000I-683318J1534756D01*
G01*
X165619426Y-48084958D02*
G75*
G02X165619000Y-49452000I-1535426J-683042D01*
G01*
X163400958Y-47232574D02*
G75*
G02X164768000Y-47233000I683042J-1535426D01*
G01*
X162548574Y-49451042D02*
G75*
G02X162549000Y-48084000I1535426J683042D01*
G01*
X164112805Y-50448253D02*
G75*
G02X163400000Y-50303000I-28805J1680253D01*
G01*
X170764000Y-48768000D02*
G75*
G03X170764000Y-48768000I-1680000J0D01*
G01*
X161524000Y-52868000D02*
X171644000Y-52868000D01*
X161524000Y-51368000D02*
X171644000Y-51368000D01*
X161524000Y-46467000D02*
X171644000Y-46467000D01*
X161524000Y-43507000D02*
X171644000Y-43507000D01*
X161524000Y-53428000D02*
X171644000Y-53428000D01*
X161524000Y-43507000D02*
X161524000Y-53428000D01*
X171644000Y-43507000D02*
X171644000Y-53428000D01*
X170359000Y-47699000D02*
X170312000Y-47745000D01*
X168050000Y-50007000D02*
X168015000Y-50042000D01*
X170154000Y-47493000D02*
X170119000Y-47529000D01*
X167857000Y-49791000D02*
X167810000Y-49837000D01*
X161284000Y-52928000D02*
X161284000Y-53668000D01*
X161284000Y-53668000D02*
X161784000Y-53668000D01*
X108459318Y-125486756D02*
G75*
G02X107776000Y-125632000I-683318J1534756D01*
G01*
X109311426Y-123268958D02*
G75*
G02X109311000Y-124636000I-1535426J-683042D01*
G01*
X107092958Y-122416574D02*
G75*
G02X108460000Y-122417000I683042J-1535426D01*
G01*
X106240574Y-124635042D02*
G75*
G02X106241000Y-123268000I1535426J683042D01*
G01*
X107804805Y-125632253D02*
G75*
G02X107092000Y-125487000I-28805J1680253D01*
G01*
X114456000Y-123952000D02*
G75*
G03X114456000Y-123952000I-1680000J0D01*
G01*
X105216000Y-128052000D02*
X115336000Y-128052000D01*
X105216000Y-126552000D02*
X115336000Y-126552000D01*
X105216000Y-121651000D02*
X115336000Y-121651000D01*
X105216000Y-118691000D02*
X115336000Y-118691000D01*
X105216000Y-128612000D02*
X115336000Y-128612000D01*
X105216000Y-118691000D02*
X105216000Y-128612000D01*
X115336000Y-118691000D02*
X115336000Y-128612000D01*
X114051000Y-122883000D02*
X114004000Y-122929000D01*
X111742000Y-125191000D02*
X111707000Y-125226000D01*
X113846000Y-122677000D02*
X113811000Y-122713000D01*
X111549000Y-124975000D02*
X111502000Y-125021000D01*
X104976000Y-128112000D02*
X104976000Y-128852000D01*
X104976000Y-128852000D02*
X105476000Y-128852000D01*
X170220000Y-92170000D02*
X159980000Y-92170000D01*
X170220000Y-87529000D02*
X159980000Y-87529000D01*
X170220000Y-92170000D02*
X170220000Y-87529000D01*
X159980000Y-92170000D02*
X159980000Y-87529000D01*
X170220000Y-90660000D02*
X159980000Y-90660000D01*
X166950000Y-92170000D02*
X166950000Y-90660000D01*
X163249000Y-92170000D02*
X163249000Y-90660000D01*
X177156000Y-66710000D02*
X177156000Y-67910000D01*
X175396000Y-67910000D02*
X175396000Y-66710000D01*
X155566000Y-59532000D02*
X155566000Y-60732000D01*
X153806000Y-60732000D02*
X153806000Y-59532000D01*
X163204000Y-62830000D02*
X163204000Y-61630000D01*
X164964000Y-61630000D02*
X164964000Y-62830000D01*
X165998000Y-79660000D02*
X165998000Y-78460000D01*
X167758000Y-78460000D02*
X167758000Y-79660000D01*
X163042000Y-79130000D02*
X164242000Y-79130000D01*
X164242000Y-80890000D02*
X163042000Y-80890000D01*
X142358000Y-72806000D02*
X142358000Y-74006000D01*
X140598000Y-74006000D02*
X140598000Y-72806000D01*
X163440000Y-84170000D02*
X163440000Y-85370000D01*
X161680000Y-85370000D02*
X161680000Y-84170000D01*
D14*
X166642000Y-119826000D02*
X167082000Y-119826000D01*
X166642000Y-118426000D02*
X167082000Y-118426000D01*
D12*
X166278000Y-120786000D02*
X167478000Y-120786000D01*
X167478000Y-122546000D02*
X166278000Y-122546000D01*
D14*
X156592000Y-104180000D02*
X156592000Y-108280000D01*
X159892000Y-104180000D02*
X159892000Y-108280000D01*
D12*
X138018000Y-78368000D02*
X139218000Y-78368000D01*
X139218000Y-80128000D02*
X138018000Y-80128000D01*
X61604000Y-116744000D02*
X61604000Y-115544000D01*
X63364000Y-115544000D02*
X63364000Y-116744000D01*
D14*
X152273000Y-76169000D02*
X158623000Y-76169000D01*
X152273000Y-66579000D02*
X158623000Y-66579000D01*
D13*
X150513000Y-67564000D02*
G75*
G03X150513000Y-67564000I-100000J0D01*
G01*
D11*
X215971140Y-104174110D02*
G75*
G03X215971140Y-104174110I-254000J0D01*
G01*
D14*
X216114000Y-106410000D02*
G75*
G03X216114000Y-106410000I-2500000J0D01*
G01*
X215860000Y-121174000D02*
G75*
G03X215860000Y-121174000I-2500000J0D01*
G01*
D11*
X211510860Y-123409890D02*
G75*
G03X211510860Y-123409890I-254000J0D01*
G01*
X67492860Y-122869890D02*
G75*
G03X67492860Y-122869890I-254000J0D01*
G01*
D14*
X71842000Y-120634000D02*
G75*
G03X71842000Y-120634000I-2500000J0D01*
G01*
X72350000Y-106172000D02*
G75*
G03X72350000Y-106172000I-2500000J0D01*
G01*
D11*
X72207140Y-103936110D02*
G75*
G03X72207140Y-103936110I-254000J0D01*
G01*
X176003000Y-73074000D02*
G75*
G03X176003000Y-73074000I-127000J0D01*
G01*
D15*
G36*
X169280000Y-77232276D02*
G01*
X169280000Y-76832000D01*
X171080414Y-76832000D01*
X171080414Y-77232276D01*
X169280000Y-77232276D01*
G37*
X169280000Y-77232276D02*
X169280000Y-76832000D01*
X171080414Y-76832000D01*
X171080414Y-77232276D01*
X169280000Y-77232276D01*
D11*
X169303606Y-78232000D02*
G75*
G03X169303606Y-78232000I-223606J0D01*
G01*
X175059606Y-75032000D02*
G75*
G03X175059606Y-75032000I-223606J0D01*
G01*
D15*
G36*
X174636000Y-76031724D02*
G01*
X174636000Y-76432000D01*
X172835586Y-76432000D01*
X172835586Y-76031724D01*
X174636000Y-76031724D01*
G37*
X174636000Y-76031724D02*
X174636000Y-76432000D01*
X172835586Y-76432000D01*
X172835586Y-76031724D01*
X174636000Y-76031724D01*
D11*
X161437606Y-125392000D02*
G75*
G03X161437606Y-125392000I-223606J0D01*
G01*
D15*
G36*
X162213724Y-125592000D02*
G01*
X162614000Y-125592000D01*
X162614000Y-127392414D01*
X162213724Y-127392414D01*
X162213724Y-125592000D01*
G37*
X162213724Y-125592000D02*
X162614000Y-125592000D01*
X162614000Y-127392414D01*
X162213724Y-127392414D01*
X162213724Y-125592000D01*
G36*
X156193724Y-98668000D02*
G01*
X156594000Y-98668000D01*
X156594000Y-100468414D01*
X156193724Y-100468414D01*
X156193724Y-98668000D01*
G37*
X156193724Y-98668000D02*
X156594000Y-98668000D01*
X156594000Y-100468414D01*
X156193724Y-100468414D01*
X156193724Y-98668000D01*
D11*
X155417606Y-98468000D02*
G75*
G03X155417606Y-98468000I-223606J0D01*
G01*
X123921606Y-107272000D02*
G75*
G03X123921606Y-107272000I-223606J0D01*
G01*
D15*
G36*
X122698276Y-107072000D02*
G01*
X122298000Y-107072000D01*
X122298000Y-105271586D01*
X122698276Y-105271586D01*
X122698276Y-107072000D01*
G37*
X122698276Y-107072000D02*
X122298000Y-107072000D01*
X122298000Y-105271586D01*
X122698276Y-105271586D01*
X122698276Y-107072000D01*
D11*
X63011000Y-110580000D02*
G75*
G03X63011000Y-110580000I-127000J0D01*
G01*
D15*
G36*
X191942190Y-88732000D02*
G01*
X194034000Y-88732000D01*
X194034000Y-93287550D01*
X191942190Y-93287550D01*
X191942190Y-88732000D01*
G37*
X191942190Y-88732000D02*
X194034000Y-88732000D01*
X194034000Y-93287550D01*
X191942190Y-93287550D01*
X191942190Y-88732000D01*
D13*
X199584000Y-90932000D02*
X202434000Y-90932000D01*
X189234000Y-90932000D02*
X192084000Y-90932000D01*
X192084000Y-90932000D02*
X192084000Y-88732000D01*
X192084000Y-93132000D02*
X192084000Y-90932000D01*
X199584000Y-93132000D02*
X192084000Y-93132000D01*
X199584000Y-90932000D02*
X199584000Y-93132000D01*
X199584000Y-88732000D02*
X199584000Y-90932000D01*
X192084000Y-88732000D02*
X199584000Y-88732000D01*
X60284000Y-101540000D02*
X60284000Y-94040000D01*
X60284000Y-94040000D02*
X62484000Y-94040000D01*
X62484000Y-94040000D02*
X64684000Y-94040000D01*
X64684000Y-94040000D02*
X64684000Y-101540000D01*
X64684000Y-101540000D02*
X62484000Y-101540000D01*
X62484000Y-101540000D02*
X60284000Y-101540000D01*
X62484000Y-104390000D02*
X62484000Y-101540000D01*
X62484000Y-94040000D02*
X62484000Y-91190000D01*
D15*
G36*
X60284000Y-101681810D02*
G01*
X60284000Y-99590000D01*
X64839550Y-99590000D01*
X64839550Y-101681810D01*
X60284000Y-101681810D01*
G37*
X60284000Y-101681810D02*
X60284000Y-99590000D01*
X64839550Y-99590000D01*
X64839550Y-101681810D01*
X60284000Y-101681810D01*
D13*
X143102000Y-57150000D02*
G75*
G03X143102000Y-57150000I-100000J0D01*
G01*
D14*
X139472000Y-64514000D02*
X139472000Y-57914000D01*
X141767000Y-64514000D02*
X139482000Y-64514000D01*
X146472000Y-64514000D02*
X144307000Y-64514000D01*
X146472000Y-57914000D02*
X146472000Y-64514000D01*
X144307000Y-57914000D02*
X146472000Y-57914000D01*
X139482000Y-57914000D02*
X141767000Y-57914000D01*
D12*
X145482000Y-85792000D02*
X145482000Y-88452000D01*
X148082000Y-85792000D02*
X145482000Y-85792000D01*
X148082000Y-88452000D02*
X145482000Y-88452000D01*
X148082000Y-85792000D02*
X148082000Y-88452000D01*
X149352000Y-85792000D02*
X150682000Y-85792000D01*
X150682000Y-85792000D02*
X150682000Y-87122000D01*
D13*
X174598000Y-121250000D02*
G75*
G03X174598000Y-121250000I-100000J0D01*
G01*
D14*
X179498000Y-127000000D02*
G75*
G03X179498000Y-127000000I-5000000J0D01*
G01*
D13*
X169518000Y-95193000D02*
G75*
G03X169518000Y-95193000I-100000J0D01*
G01*
D14*
X165308000Y-97943000D02*
X167998000Y-97943000D01*
X162566000Y-100683000D02*
X165308000Y-97943000D01*
X162568000Y-111643000D02*
X162566000Y-100683000D01*
X167998000Y-111643000D02*
X162568000Y-111643000D01*
X176268000Y-111643000D02*
X170838000Y-111643000D01*
X176270000Y-100683000D02*
X176268000Y-111643000D01*
X173528000Y-97943000D02*
X176270000Y-100683000D01*
X170838000Y-97943000D02*
X173528000Y-97943000D01*
D16*
X150924380Y-129606523D02*
X150924380Y-130634619D01*
X150984857Y-130755571D01*
X151045333Y-130816047D01*
X151166285Y-130876523D01*
X151408190Y-130876523D01*
X151529142Y-130816047D01*
X151589619Y-130755571D01*
X151650095Y-130634619D01*
X151650095Y-129606523D01*
X152194380Y-129727476D02*
X152254857Y-129667000D01*
X152375809Y-129606523D01*
X152678190Y-129606523D01*
X152799142Y-129667000D01*
X152859619Y-129727476D01*
X152920095Y-129848428D01*
X152920095Y-129969380D01*
X152859619Y-130150809D01*
X152133904Y-130876523D01*
X152920095Y-130876523D01*
D17*
X170013333Y-69094142D02*
X169965714Y-69141761D01*
X169822857Y-69189380D01*
X169727619Y-69189380D01*
X169584761Y-69141761D01*
X169489523Y-69046523D01*
X169441904Y-68951285D01*
X169394285Y-68760809D01*
X169394285Y-68617952D01*
X169441904Y-68427476D01*
X169489523Y-68332238D01*
X169584761Y-68237000D01*
X169727619Y-68189380D01*
X169822857Y-68189380D01*
X169965714Y-68237000D01*
X170013333Y-68284619D01*
X170965714Y-69189380D02*
X170394285Y-69189380D01*
X170680000Y-69189380D02*
X170680000Y-68189380D01*
X170584761Y-68332238D01*
X170489523Y-68427476D01*
X170394285Y-68475095D01*
X173569333Y-69094142D02*
X173521714Y-69141761D01*
X173378857Y-69189380D01*
X173283619Y-69189380D01*
X173140761Y-69141761D01*
X173045523Y-69046523D01*
X172997904Y-68951285D01*
X172950285Y-68760809D01*
X172950285Y-68617952D01*
X172997904Y-68427476D01*
X173045523Y-68332238D01*
X173140761Y-68237000D01*
X173283619Y-68189380D01*
X173378857Y-68189380D01*
X173521714Y-68237000D01*
X173569333Y-68284619D01*
X173950285Y-68284619D02*
X173997904Y-68237000D01*
X174093142Y-68189380D01*
X174331238Y-68189380D01*
X174426476Y-68237000D01*
X174474095Y-68284619D01*
X174521714Y-68379857D01*
X174521714Y-68475095D01*
X174474095Y-68617952D01*
X173902666Y-69189380D01*
X174521714Y-69189380D01*
X164757833Y-66271142D02*
X164710214Y-66318761D01*
X164567357Y-66366380D01*
X164472119Y-66366380D01*
X164329261Y-66318761D01*
X164234023Y-66223523D01*
X164186404Y-66128285D01*
X164138785Y-65937809D01*
X164138785Y-65794952D01*
X164186404Y-65604476D01*
X164234023Y-65509238D01*
X164329261Y-65414000D01*
X164472119Y-65366380D01*
X164567357Y-65366380D01*
X164710214Y-65414000D01*
X164757833Y-65461619D01*
X165091166Y-65366380D02*
X165710214Y-65366380D01*
X165376880Y-65747333D01*
X165519738Y-65747333D01*
X165614976Y-65794952D01*
X165662595Y-65842571D01*
X165710214Y-65937809D01*
X165710214Y-66175904D01*
X165662595Y-66271142D01*
X165614976Y-66318761D01*
X165519738Y-66366380D01*
X165234023Y-66366380D01*
X165138785Y-66318761D01*
X165091166Y-66271142D01*
X167805833Y-59921142D02*
X167758214Y-59968761D01*
X167615357Y-60016380D01*
X167520119Y-60016380D01*
X167377261Y-59968761D01*
X167282023Y-59873523D01*
X167234404Y-59778285D01*
X167186785Y-59587809D01*
X167186785Y-59444952D01*
X167234404Y-59254476D01*
X167282023Y-59159238D01*
X167377261Y-59064000D01*
X167520119Y-59016380D01*
X167615357Y-59016380D01*
X167758214Y-59064000D01*
X167805833Y-59111619D01*
X168662976Y-59349714D02*
X168662976Y-60016380D01*
X168424880Y-58968761D02*
X168186785Y-59683047D01*
X168805833Y-59683047D01*
X144359333Y-74525142D02*
X144311714Y-74572761D01*
X144168857Y-74620380D01*
X144073619Y-74620380D01*
X143930761Y-74572761D01*
X143835523Y-74477523D01*
X143787904Y-74382285D01*
X143740285Y-74191809D01*
X143740285Y-74048952D01*
X143787904Y-73858476D01*
X143835523Y-73763238D01*
X143930761Y-73668000D01*
X144073619Y-73620380D01*
X144168857Y-73620380D01*
X144311714Y-73668000D01*
X144359333Y-73715619D01*
X145264095Y-73620380D02*
X144787904Y-73620380D01*
X144740285Y-74096571D01*
X144787904Y-74048952D01*
X144883142Y-74001333D01*
X145121238Y-74001333D01*
X145216476Y-74048952D01*
X145264095Y-74096571D01*
X145311714Y-74191809D01*
X145311714Y-74429904D01*
X145264095Y-74525142D01*
X145216476Y-74572761D01*
X145121238Y-74620380D01*
X144883142Y-74620380D01*
X144787904Y-74572761D01*
X144740285Y-74525142D01*
D18*
X199223333Y-116689142D02*
X199175714Y-116736761D01*
X199032857Y-116784380D01*
X198937619Y-116784380D01*
X198794761Y-116736761D01*
X198699523Y-116641523D01*
X198651904Y-116546285D01*
X198604285Y-116355809D01*
X198604285Y-116212952D01*
X198651904Y-116022476D01*
X198699523Y-115927238D01*
X198794761Y-115832000D01*
X198937619Y-115784380D01*
X199032857Y-115784380D01*
X199175714Y-115832000D01*
X199223333Y-115879619D01*
X199794761Y-116212952D02*
X199699523Y-116165333D01*
X199651904Y-116117714D01*
X199604285Y-116022476D01*
X199604285Y-115974857D01*
X199651904Y-115879619D01*
X199699523Y-115832000D01*
X199794761Y-115784380D01*
X199985238Y-115784380D01*
X200080476Y-115832000D01*
X200128095Y-115879619D01*
X200175714Y-115974857D01*
X200175714Y-116022476D01*
X200128095Y-116117714D01*
X200080476Y-116165333D01*
X199985238Y-116212952D01*
X199794761Y-116212952D01*
X199699523Y-116260571D01*
X199651904Y-116308190D01*
X199604285Y-116403428D01*
X199604285Y-116593904D01*
X199651904Y-116689142D01*
X199699523Y-116736761D01*
X199794761Y-116784380D01*
X199985238Y-116784380D01*
X200080476Y-116736761D01*
X200128095Y-116689142D01*
X200175714Y-116593904D01*
X200175714Y-116403428D01*
X200128095Y-116308190D01*
X200080476Y-116260571D01*
X199985238Y-116212952D01*
X199477333Y-99163142D02*
X199429714Y-99210761D01*
X199286857Y-99258380D01*
X199191619Y-99258380D01*
X199048761Y-99210761D01*
X198953523Y-99115523D01*
X198905904Y-99020285D01*
X198858285Y-98829809D01*
X198858285Y-98686952D01*
X198905904Y-98496476D01*
X198953523Y-98401238D01*
X199048761Y-98306000D01*
X199191619Y-98258380D01*
X199286857Y-98258380D01*
X199429714Y-98306000D01*
X199477333Y-98353619D01*
X199953523Y-99258380D02*
X200144000Y-99258380D01*
X200239238Y-99210761D01*
X200286857Y-99163142D01*
X200382095Y-99020285D01*
X200429714Y-98829809D01*
X200429714Y-98448857D01*
X200382095Y-98353619D01*
X200334476Y-98306000D01*
X200239238Y-98258380D01*
X200048761Y-98258380D01*
X199953523Y-98306000D01*
X199905904Y-98353619D01*
X199858285Y-98448857D01*
X199858285Y-98686952D01*
X199905904Y-98782190D01*
X199953523Y-98829809D01*
X200048761Y-98877428D01*
X200239238Y-98877428D01*
X200334476Y-98829809D01*
X200382095Y-98782190D01*
X200429714Y-98686952D01*
X192397142Y-116435142D02*
X192349523Y-116482761D01*
X192206666Y-116530380D01*
X192111428Y-116530380D01*
X191968571Y-116482761D01*
X191873333Y-116387523D01*
X191825714Y-116292285D01*
X191778095Y-116101809D01*
X191778095Y-115958952D01*
X191825714Y-115768476D01*
X191873333Y-115673238D01*
X191968571Y-115578000D01*
X192111428Y-115530380D01*
X192206666Y-115530380D01*
X192349523Y-115578000D01*
X192397142Y-115625619D01*
X193349523Y-116530380D02*
X192778095Y-116530380D01*
X193063809Y-116530380D02*
X193063809Y-115530380D01*
X192968571Y-115673238D01*
X192873333Y-115768476D01*
X192778095Y-115816095D01*
X193968571Y-115530380D02*
X194063809Y-115530380D01*
X194159047Y-115578000D01*
X194206666Y-115625619D01*
X194254285Y-115720857D01*
X194301904Y-115911333D01*
X194301904Y-116149428D01*
X194254285Y-116339904D01*
X194206666Y-116435142D01*
X194159047Y-116482761D01*
X194063809Y-116530380D01*
X193968571Y-116530380D01*
X193873333Y-116482761D01*
X193825714Y-116435142D01*
X193778095Y-116339904D01*
X193730476Y-116149428D01*
X193730476Y-115911333D01*
X193778095Y-115720857D01*
X193825714Y-115625619D01*
X193873333Y-115578000D01*
X193968571Y-115530380D01*
X192397142Y-98909142D02*
X192349523Y-98956761D01*
X192206666Y-99004380D01*
X192111428Y-99004380D01*
X191968571Y-98956761D01*
X191873333Y-98861523D01*
X191825714Y-98766285D01*
X191778095Y-98575809D01*
X191778095Y-98432952D01*
X191825714Y-98242476D01*
X191873333Y-98147238D01*
X191968571Y-98052000D01*
X192111428Y-98004380D01*
X192206666Y-98004380D01*
X192349523Y-98052000D01*
X192397142Y-98099619D01*
X193349523Y-99004380D02*
X192778095Y-99004380D01*
X193063809Y-99004380D02*
X193063809Y-98004380D01*
X192968571Y-98147238D01*
X192873333Y-98242476D01*
X192778095Y-98290095D01*
X194301904Y-99004380D02*
X193730476Y-99004380D01*
X194016190Y-99004380D02*
X194016190Y-98004380D01*
X193920952Y-98147238D01*
X193825714Y-98242476D01*
X193730476Y-98290095D01*
D17*
X133977142Y-77319142D02*
X133929523Y-77366761D01*
X133786666Y-77414380D01*
X133691428Y-77414380D01*
X133548571Y-77366761D01*
X133453333Y-77271523D01*
X133405714Y-77176285D01*
X133358095Y-76985809D01*
X133358095Y-76842952D01*
X133405714Y-76652476D01*
X133453333Y-76557238D01*
X133548571Y-76462000D01*
X133691428Y-76414380D01*
X133786666Y-76414380D01*
X133929523Y-76462000D01*
X133977142Y-76509619D01*
X134929523Y-77414380D02*
X134358095Y-77414380D01*
X134643809Y-77414380D02*
X134643809Y-76414380D01*
X134548571Y-76557238D01*
X134453333Y-76652476D01*
X134358095Y-76700095D01*
X135786666Y-76747714D02*
X135786666Y-77414380D01*
X135548571Y-76366761D02*
X135310476Y-77081047D01*
X135929523Y-77081047D01*
X143375142Y-82907142D02*
X143327523Y-82954761D01*
X143184666Y-83002380D01*
X143089428Y-83002380D01*
X142946571Y-82954761D01*
X142851333Y-82859523D01*
X142803714Y-82764285D01*
X142756095Y-82573809D01*
X142756095Y-82430952D01*
X142803714Y-82240476D01*
X142851333Y-82145238D01*
X142946571Y-82050000D01*
X143089428Y-82002380D01*
X143184666Y-82002380D01*
X143327523Y-82050000D01*
X143375142Y-82097619D01*
X144327523Y-83002380D02*
X143756095Y-83002380D01*
X144041809Y-83002380D02*
X144041809Y-82002380D01*
X143946571Y-82145238D01*
X143851333Y-82240476D01*
X143756095Y-82288095D01*
X145232285Y-82002380D02*
X144756095Y-82002380D01*
X144708476Y-82478571D01*
X144756095Y-82430952D01*
X144851333Y-82383333D01*
X145089428Y-82383333D01*
X145184666Y-82430952D01*
X145232285Y-82478571D01*
X145279904Y-82573809D01*
X145279904Y-82811904D01*
X145232285Y-82907142D01*
X145184666Y-82954761D01*
X145089428Y-83002380D01*
X144851333Y-83002380D01*
X144756095Y-82954761D01*
X144708476Y-82907142D01*
X110183142Y-104139142D02*
X110135523Y-104186761D01*
X109992666Y-104234380D01*
X109897428Y-104234380D01*
X109754571Y-104186761D01*
X109659333Y-104091523D01*
X109611714Y-103996285D01*
X109564095Y-103805809D01*
X109564095Y-103662952D01*
X109611714Y-103472476D01*
X109659333Y-103377238D01*
X109754571Y-103282000D01*
X109897428Y-103234380D01*
X109992666Y-103234380D01*
X110135523Y-103282000D01*
X110183142Y-103329619D01*
X111135523Y-104234380D02*
X110564095Y-104234380D01*
X110849809Y-104234380D02*
X110849809Y-103234380D01*
X110754571Y-103377238D01*
X110659333Y-103472476D01*
X110564095Y-103520095D01*
X111468857Y-103234380D02*
X112135523Y-103234380D01*
X111706952Y-104234380D01*
D18*
X90543142Y-99417142D02*
X90495523Y-99464761D01*
X90352666Y-99512380D01*
X90257428Y-99512380D01*
X90114571Y-99464761D01*
X90019333Y-99369523D01*
X89971714Y-99274285D01*
X89924095Y-99083809D01*
X89924095Y-98940952D01*
X89971714Y-98750476D01*
X90019333Y-98655238D01*
X90114571Y-98560000D01*
X90257428Y-98512380D01*
X90352666Y-98512380D01*
X90495523Y-98560000D01*
X90543142Y-98607619D01*
X90924095Y-98607619D02*
X90971714Y-98560000D01*
X91066952Y-98512380D01*
X91305047Y-98512380D01*
X91400285Y-98560000D01*
X91447904Y-98607619D01*
X91495523Y-98702857D01*
X91495523Y-98798095D01*
X91447904Y-98940952D01*
X90876476Y-99512380D01*
X91495523Y-99512380D01*
X92114571Y-98512380D02*
X92209809Y-98512380D01*
X92305047Y-98560000D01*
X92352666Y-98607619D01*
X92400285Y-98702857D01*
X92447904Y-98893333D01*
X92447904Y-99131428D01*
X92400285Y-99321904D01*
X92352666Y-99417142D01*
X92305047Y-99464761D01*
X92209809Y-99512380D01*
X92114571Y-99512380D01*
X92019333Y-99464761D01*
X91971714Y-99417142D01*
X91924095Y-99321904D01*
X91876476Y-99131428D01*
X91876476Y-98893333D01*
X91924095Y-98702857D01*
X91971714Y-98607619D01*
X92019333Y-98560000D01*
X92114571Y-98512380D01*
X99179142Y-115974142D02*
X99131523Y-116021761D01*
X98988666Y-116069380D01*
X98893428Y-116069380D01*
X98750571Y-116021761D01*
X98655333Y-115926523D01*
X98607714Y-115831285D01*
X98560095Y-115640809D01*
X98560095Y-115497952D01*
X98607714Y-115307476D01*
X98655333Y-115212238D01*
X98750571Y-115117000D01*
X98893428Y-115069380D01*
X98988666Y-115069380D01*
X99131523Y-115117000D01*
X99179142Y-115164619D01*
X99560095Y-115164619D02*
X99607714Y-115117000D01*
X99702952Y-115069380D01*
X99941047Y-115069380D01*
X100036285Y-115117000D01*
X100083904Y-115164619D01*
X100131523Y-115259857D01*
X100131523Y-115355095D01*
X100083904Y-115497952D01*
X99512476Y-116069380D01*
X100131523Y-116069380D01*
X101083904Y-116069380D02*
X100512476Y-116069380D01*
X100798190Y-116069380D02*
X100798190Y-115069380D01*
X100702952Y-115212238D01*
X100607714Y-115307476D01*
X100512476Y-115355095D01*
X83177142Y-128420142D02*
X83129523Y-128467761D01*
X82986666Y-128515380D01*
X82891428Y-128515380D01*
X82748571Y-128467761D01*
X82653333Y-128372523D01*
X82605714Y-128277285D01*
X82558095Y-128086809D01*
X82558095Y-127943952D01*
X82605714Y-127753476D01*
X82653333Y-127658238D01*
X82748571Y-127563000D01*
X82891428Y-127515380D01*
X82986666Y-127515380D01*
X83129523Y-127563000D01*
X83177142Y-127610619D01*
X83558095Y-127610619D02*
X83605714Y-127563000D01*
X83700952Y-127515380D01*
X83939047Y-127515380D01*
X84034285Y-127563000D01*
X84081904Y-127610619D01*
X84129523Y-127705857D01*
X84129523Y-127801095D01*
X84081904Y-127943952D01*
X83510476Y-128515380D01*
X84129523Y-128515380D01*
X84510476Y-127610619D02*
X84558095Y-127563000D01*
X84653333Y-127515380D01*
X84891428Y-127515380D01*
X84986666Y-127563000D01*
X85034285Y-127610619D01*
X85081904Y-127705857D01*
X85081904Y-127801095D01*
X85034285Y-127943952D01*
X84462857Y-128515380D01*
X85081904Y-128515380D01*
X75303142Y-112023142D02*
X75255523Y-112070761D01*
X75112666Y-112118380D01*
X75017428Y-112118380D01*
X74874571Y-112070761D01*
X74779333Y-111975523D01*
X74731714Y-111880285D01*
X74684095Y-111689809D01*
X74684095Y-111546952D01*
X74731714Y-111356476D01*
X74779333Y-111261238D01*
X74874571Y-111166000D01*
X75017428Y-111118380D01*
X75112666Y-111118380D01*
X75255523Y-111166000D01*
X75303142Y-111213619D01*
X75684095Y-111213619D02*
X75731714Y-111166000D01*
X75826952Y-111118380D01*
X76065047Y-111118380D01*
X76160285Y-111166000D01*
X76207904Y-111213619D01*
X76255523Y-111308857D01*
X76255523Y-111404095D01*
X76207904Y-111546952D01*
X75636476Y-112118380D01*
X76255523Y-112118380D01*
X76588857Y-111118380D02*
X77207904Y-111118380D01*
X76874571Y-111499333D01*
X77017428Y-111499333D01*
X77112666Y-111546952D01*
X77160285Y-111594571D01*
X77207904Y-111689809D01*
X77207904Y-111927904D01*
X77160285Y-112023142D01*
X77112666Y-112070761D01*
X77017428Y-112118380D01*
X76731714Y-112118380D01*
X76636476Y-112070761D01*
X76588857Y-112023142D01*
D17*
X216278380Y-75557333D02*
X216992666Y-75557333D01*
X217135523Y-75604952D01*
X217230761Y-75700190D01*
X217278380Y-75843047D01*
X217278380Y-75938285D01*
X217278380Y-74557333D02*
X217278380Y-75128761D01*
X217278380Y-74843047D02*
X216278380Y-74843047D01*
X216421238Y-74938285D01*
X216516476Y-75033523D01*
X216564095Y-75128761D01*
X166250666Y-41960380D02*
X166250666Y-42674666D01*
X166203047Y-42817523D01*
X166107809Y-42912761D01*
X165964952Y-42960380D01*
X165869714Y-42960380D01*
X166679238Y-42055619D02*
X166726857Y-42008000D01*
X166822095Y-41960380D01*
X167060190Y-41960380D01*
X167155428Y-42008000D01*
X167203047Y-42055619D01*
X167250666Y-42150857D01*
X167250666Y-42246095D01*
X167203047Y-42388952D01*
X166631619Y-42960380D01*
X167250666Y-42960380D01*
X105156666Y-129500380D02*
X105156666Y-130214666D01*
X105109047Y-130357523D01*
X105013809Y-130452761D01*
X104870952Y-130500380D01*
X104775714Y-130500380D01*
X105537619Y-129500380D02*
X106156666Y-129500380D01*
X105823333Y-129881333D01*
X105966190Y-129881333D01*
X106061428Y-129928952D01*
X106109047Y-129976571D01*
X106156666Y-130071809D01*
X106156666Y-130309904D01*
X106109047Y-130405142D01*
X106061428Y-130452761D01*
X105966190Y-130500380D01*
X105680476Y-130500380D01*
X105585238Y-130452761D01*
X105537619Y-130405142D01*
X171354761Y-88431619D02*
X171259523Y-88384000D01*
X171164285Y-88288761D01*
X171021428Y-88145904D01*
X170926190Y-88098285D01*
X170830952Y-88098285D01*
X170878571Y-88336380D02*
X170783333Y-88288761D01*
X170688095Y-88193523D01*
X170640476Y-88003047D01*
X170640476Y-87669714D01*
X170688095Y-87479238D01*
X170783333Y-87384000D01*
X170878571Y-87336380D01*
X171069047Y-87336380D01*
X171164285Y-87384000D01*
X171259523Y-87479238D01*
X171307142Y-87669714D01*
X171307142Y-88003047D01*
X171259523Y-88193523D01*
X171164285Y-88288761D01*
X171069047Y-88336380D01*
X170878571Y-88336380D01*
X172259523Y-88336380D02*
X171688095Y-88336380D01*
X171973809Y-88336380D02*
X171973809Y-87336380D01*
X171878571Y-87479238D01*
X171783333Y-87574476D01*
X171688095Y-87622095D01*
X176109333Y-65034380D02*
X175776000Y-64558190D01*
X175537904Y-65034380D02*
X175537904Y-64034380D01*
X175918857Y-64034380D01*
X176014095Y-64082000D01*
X176061714Y-64129619D01*
X176109333Y-64224857D01*
X176109333Y-64367714D01*
X176061714Y-64462952D01*
X176014095Y-64510571D01*
X175918857Y-64558190D01*
X175537904Y-64558190D01*
X177061714Y-65034380D02*
X176490285Y-65034380D01*
X176776000Y-65034380D02*
X176776000Y-64034380D01*
X176680761Y-64177238D01*
X176585523Y-64272476D01*
X176490285Y-64320095D01*
X154519333Y-57856380D02*
X154186000Y-57380190D01*
X153947904Y-57856380D02*
X153947904Y-56856380D01*
X154328857Y-56856380D01*
X154424095Y-56904000D01*
X154471714Y-56951619D01*
X154519333Y-57046857D01*
X154519333Y-57189714D01*
X154471714Y-57284952D01*
X154424095Y-57332571D01*
X154328857Y-57380190D01*
X153947904Y-57380190D01*
X154900285Y-56951619D02*
X154947904Y-56904000D01*
X155043142Y-56856380D01*
X155281238Y-56856380D01*
X155376476Y-56904000D01*
X155424095Y-56951619D01*
X155471714Y-57046857D01*
X155471714Y-57142095D01*
X155424095Y-57284952D01*
X154852666Y-57856380D01*
X155471714Y-57856380D01*
X163917333Y-60396380D02*
X163584000Y-59920190D01*
X163345904Y-60396380D02*
X163345904Y-59396380D01*
X163726857Y-59396380D01*
X163822095Y-59444000D01*
X163869714Y-59491619D01*
X163917333Y-59586857D01*
X163917333Y-59729714D01*
X163869714Y-59824952D01*
X163822095Y-59872571D01*
X163726857Y-59920190D01*
X163345904Y-59920190D01*
X164250666Y-59396380D02*
X164869714Y-59396380D01*
X164536380Y-59777333D01*
X164679238Y-59777333D01*
X164774476Y-59824952D01*
X164822095Y-59872571D01*
X164869714Y-59967809D01*
X164869714Y-60205904D01*
X164822095Y-60301142D01*
X164774476Y-60348761D01*
X164679238Y-60396380D01*
X164393523Y-60396380D01*
X164298285Y-60348761D01*
X164250666Y-60301142D01*
X166711333Y-81798380D02*
X166378000Y-81322190D01*
X166139904Y-81798380D02*
X166139904Y-80798380D01*
X166520857Y-80798380D01*
X166616095Y-80846000D01*
X166663714Y-80893619D01*
X166711333Y-80988857D01*
X166711333Y-81131714D01*
X166663714Y-81226952D01*
X166616095Y-81274571D01*
X166520857Y-81322190D01*
X166139904Y-81322190D01*
X167568476Y-81131714D02*
X167568476Y-81798380D01*
X167330380Y-80750761D02*
X167092285Y-81465047D01*
X167711333Y-81465047D01*
X163475333Y-82240380D02*
X163142000Y-81764190D01*
X162903904Y-82240380D02*
X162903904Y-81240380D01*
X163284857Y-81240380D01*
X163380095Y-81288000D01*
X163427714Y-81335619D01*
X163475333Y-81430857D01*
X163475333Y-81573714D01*
X163427714Y-81668952D01*
X163380095Y-81716571D01*
X163284857Y-81764190D01*
X162903904Y-81764190D01*
X164380095Y-81240380D02*
X163903904Y-81240380D01*
X163856285Y-81716571D01*
X163903904Y-81668952D01*
X163999142Y-81621333D01*
X164237238Y-81621333D01*
X164332476Y-81668952D01*
X164380095Y-81716571D01*
X164427714Y-81811809D01*
X164427714Y-82049904D01*
X164380095Y-82145142D01*
X164332476Y-82192761D01*
X164237238Y-82240380D01*
X163999142Y-82240380D01*
X163903904Y-82192761D01*
X163856285Y-82145142D01*
X141311333Y-71384380D02*
X140978000Y-70908190D01*
X140739904Y-71384380D02*
X140739904Y-70384380D01*
X141120857Y-70384380D01*
X141216095Y-70432000D01*
X141263714Y-70479619D01*
X141311333Y-70574857D01*
X141311333Y-70717714D01*
X141263714Y-70812952D01*
X141216095Y-70860571D01*
X141120857Y-70908190D01*
X140739904Y-70908190D01*
X142168476Y-70384380D02*
X141978000Y-70384380D01*
X141882761Y-70432000D01*
X141835142Y-70479619D01*
X141739904Y-70622476D01*
X141692285Y-70812952D01*
X141692285Y-71193904D01*
X141739904Y-71289142D01*
X141787523Y-71336761D01*
X141882761Y-71384380D01*
X142073238Y-71384380D01*
X142168476Y-71336761D01*
X142216095Y-71289142D01*
X142263714Y-71193904D01*
X142263714Y-70955809D01*
X142216095Y-70860571D01*
X142168476Y-70812952D01*
X142073238Y-70765333D01*
X141882761Y-70765333D01*
X141787523Y-70812952D01*
X141739904Y-70860571D01*
X141692285Y-70955809D01*
X164425333Y-86304380D02*
X164092000Y-85828190D01*
X163853904Y-86304380D02*
X163853904Y-85304380D01*
X164234857Y-85304380D01*
X164330095Y-85352000D01*
X164377714Y-85399619D01*
X164425333Y-85494857D01*
X164425333Y-85637714D01*
X164377714Y-85732952D01*
X164330095Y-85780571D01*
X164234857Y-85828190D01*
X163853904Y-85828190D01*
X164758666Y-85304380D02*
X165425333Y-85304380D01*
X164996761Y-86304380D01*
D18*
X164272383Y-119304102D02*
X164141149Y-119116626D01*
X164047411Y-119304102D02*
X164047411Y-118910401D01*
X164197392Y-118910401D01*
X164234887Y-118929149D01*
X164253635Y-118947897D01*
X164272383Y-118985392D01*
X164272383Y-119041635D01*
X164253635Y-119079130D01*
X164234887Y-119097878D01*
X164197392Y-119116626D01*
X164047411Y-119116626D01*
X164497355Y-119079130D02*
X164459859Y-119060383D01*
X164441112Y-119041635D01*
X164422364Y-119004140D01*
X164422364Y-118985392D01*
X164441112Y-118947897D01*
X164459859Y-118929149D01*
X164497355Y-118910401D01*
X164572345Y-118910401D01*
X164609841Y-118929149D01*
X164628588Y-118947897D01*
X164647336Y-118985392D01*
X164647336Y-119004140D01*
X164628588Y-119041635D01*
X164609841Y-119060383D01*
X164572345Y-119079130D01*
X164497355Y-119079130D01*
X164459859Y-119097878D01*
X164441112Y-119116626D01*
X164422364Y-119154121D01*
X164422364Y-119229112D01*
X164441112Y-119266607D01*
X164459859Y-119285355D01*
X164497355Y-119304102D01*
X164572345Y-119304102D01*
X164609841Y-119285355D01*
X164628588Y-119266607D01*
X164647336Y-119229112D01*
X164647336Y-119154121D01*
X164628588Y-119116626D01*
X164609841Y-119097878D01*
X164572345Y-119079130D01*
D17*
X163917333Y-122118380D02*
X163584000Y-121642190D01*
X163345904Y-122118380D02*
X163345904Y-121118380D01*
X163726857Y-121118380D01*
X163822095Y-121166000D01*
X163869714Y-121213619D01*
X163917333Y-121308857D01*
X163917333Y-121451714D01*
X163869714Y-121546952D01*
X163822095Y-121594571D01*
X163726857Y-121642190D01*
X163345904Y-121642190D01*
X164393523Y-122118380D02*
X164584000Y-122118380D01*
X164679238Y-122070761D01*
X164726857Y-122023142D01*
X164822095Y-121880285D01*
X164869714Y-121689809D01*
X164869714Y-121308857D01*
X164822095Y-121213619D01*
X164774476Y-121166000D01*
X164679238Y-121118380D01*
X164488761Y-121118380D01*
X164393523Y-121166000D01*
X164345904Y-121213619D01*
X164298285Y-121308857D01*
X164298285Y-121546952D01*
X164345904Y-121642190D01*
X164393523Y-121689809D01*
X164488761Y-121737428D01*
X164679238Y-121737428D01*
X164774476Y-121689809D01*
X164822095Y-121642190D01*
X164869714Y-121546952D01*
D18*
X160670102Y-103873093D02*
X160482626Y-104004327D01*
X160670102Y-104098065D02*
X160276401Y-104098065D01*
X160276401Y-103948084D01*
X160295149Y-103910588D01*
X160313897Y-103891841D01*
X160351392Y-103873093D01*
X160407635Y-103873093D01*
X160445130Y-103891841D01*
X160463878Y-103910588D01*
X160482626Y-103948084D01*
X160482626Y-104098065D01*
X160670102Y-103498140D02*
X160670102Y-103723112D01*
X160670102Y-103610626D02*
X160276401Y-103610626D01*
X160332644Y-103648121D01*
X160370140Y-103685616D01*
X160388887Y-103723112D01*
X160276401Y-103254420D02*
X160276401Y-103216925D01*
X160295149Y-103179429D01*
X160313897Y-103160682D01*
X160351392Y-103141934D01*
X160426383Y-103123186D01*
X160520121Y-103123186D01*
X160595112Y-103141934D01*
X160632607Y-103160682D01*
X160651355Y-103179429D01*
X160670102Y-103216925D01*
X160670102Y-103254420D01*
X160651355Y-103291915D01*
X160632607Y-103310663D01*
X160595112Y-103329411D01*
X160520121Y-103348158D01*
X160426383Y-103348158D01*
X160351392Y-103329411D01*
X160313897Y-103310663D01*
X160295149Y-103291915D01*
X160276401Y-103254420D01*
D17*
X141343142Y-79700380D02*
X141009809Y-79224190D01*
X140771714Y-79700380D02*
X140771714Y-78700380D01*
X141152666Y-78700380D01*
X141247904Y-78748000D01*
X141295523Y-78795619D01*
X141343142Y-78890857D01*
X141343142Y-79033714D01*
X141295523Y-79128952D01*
X141247904Y-79176571D01*
X141152666Y-79224190D01*
X140771714Y-79224190D01*
X142295523Y-79700380D02*
X141724095Y-79700380D01*
X142009809Y-79700380D02*
X142009809Y-78700380D01*
X141914571Y-78843238D01*
X141819333Y-78938476D01*
X141724095Y-78986095D01*
X143247904Y-79700380D02*
X142676476Y-79700380D01*
X142962190Y-79700380D02*
X142962190Y-78700380D01*
X142866952Y-78843238D01*
X142771714Y-78938476D01*
X142676476Y-78986095D01*
X59047142Y-117546380D02*
X58713809Y-117070190D01*
X58475714Y-117546380D02*
X58475714Y-116546380D01*
X58856666Y-116546380D01*
X58951904Y-116594000D01*
X58999523Y-116641619D01*
X59047142Y-116736857D01*
X59047142Y-116879714D01*
X58999523Y-116974952D01*
X58951904Y-117022571D01*
X58856666Y-117070190D01*
X58475714Y-117070190D01*
X59999523Y-117546380D02*
X59428095Y-117546380D01*
X59713809Y-117546380D02*
X59713809Y-116546380D01*
X59618571Y-116689238D01*
X59523333Y-116784476D01*
X59428095Y-116832095D01*
X60380476Y-116641619D02*
X60428095Y-116594000D01*
X60523333Y-116546380D01*
X60761428Y-116546380D01*
X60856666Y-116594000D01*
X60904285Y-116641619D01*
X60951904Y-116736857D01*
X60951904Y-116832095D01*
X60904285Y-116974952D01*
X60332857Y-117546380D01*
X60951904Y-117546380D01*
D18*
X154121095Y-65219380D02*
X154121095Y-66028904D01*
X154168714Y-66124142D01*
X154216333Y-66171761D01*
X154311571Y-66219380D01*
X154502047Y-66219380D01*
X154597285Y-66171761D01*
X154644904Y-66124142D01*
X154692523Y-66028904D01*
X154692523Y-65219380D01*
X155692523Y-66219380D02*
X155121095Y-66219380D01*
X155406809Y-66219380D02*
X155406809Y-65219380D01*
X155311571Y-65362238D01*
X155216333Y-65457476D01*
X155121095Y-65505095D01*
X215479325Y-103195159D02*
X215431704Y-103242780D01*
X215288840Y-103290402D01*
X215193597Y-103290402D01*
X215050733Y-103242780D01*
X214955491Y-103147538D01*
X214907870Y-103052295D01*
X214860248Y-102861810D01*
X214860248Y-102718946D01*
X214907870Y-102528461D01*
X214955491Y-102433219D01*
X215050733Y-102337976D01*
X215193597Y-102290355D01*
X215288840Y-102290355D01*
X215431704Y-102337976D01*
X215479325Y-102385597D01*
X216336508Y-102290355D02*
X216146023Y-102290355D01*
X216050780Y-102337976D01*
X216003159Y-102385597D01*
X215907917Y-102528461D01*
X215860295Y-102718946D01*
X215860295Y-103099917D01*
X215907917Y-103195159D01*
X215955538Y-103242780D01*
X216050780Y-103290402D01*
X216241266Y-103290402D01*
X216336508Y-103242780D01*
X216384129Y-103195159D01*
X216431751Y-103099917D01*
X216431751Y-102861810D01*
X216384129Y-102766568D01*
X216336508Y-102718946D01*
X216241266Y-102671325D01*
X216050780Y-102671325D01*
X215955538Y-102718946D01*
X215907917Y-102766568D01*
X215860295Y-102861810D01*
X211161325Y-117975159D02*
X211113704Y-118022780D01*
X210970840Y-118070402D01*
X210875597Y-118070402D01*
X210732733Y-118022780D01*
X210637491Y-117927538D01*
X210589870Y-117832295D01*
X210542248Y-117641810D01*
X210542248Y-117498946D01*
X210589870Y-117308461D01*
X210637491Y-117213219D01*
X210732733Y-117117976D01*
X210875597Y-117070355D01*
X210970840Y-117070355D01*
X211113704Y-117117976D01*
X211161325Y-117165597D01*
X211494674Y-117070355D02*
X212161372Y-117070355D01*
X211732780Y-118070402D01*
X69715112Y-117435159D02*
X69667491Y-117482780D01*
X69524627Y-117530402D01*
X69429384Y-117530402D01*
X69286521Y-117482780D01*
X69191278Y-117387538D01*
X69143657Y-117292295D01*
X69096035Y-117101810D01*
X69096035Y-116958946D01*
X69143657Y-116768461D01*
X69191278Y-116673219D01*
X69286521Y-116577976D01*
X69429384Y-116530355D01*
X69524627Y-116530355D01*
X69667491Y-116577976D01*
X69715112Y-116625597D01*
X70667538Y-117530402D02*
X70096082Y-117530402D01*
X70381810Y-117530402D02*
X70381810Y-116530355D01*
X70286568Y-116673219D01*
X70191325Y-116768461D01*
X70096082Y-116816082D01*
X71238993Y-116958946D02*
X71143751Y-116911325D01*
X71096129Y-116863704D01*
X71048508Y-116768461D01*
X71048508Y-116720840D01*
X71096129Y-116625597D01*
X71143751Y-116577976D01*
X71238993Y-116530355D01*
X71429478Y-116530355D01*
X71524721Y-116577976D01*
X71572342Y-116625597D01*
X71619964Y-116720840D01*
X71619964Y-116768461D01*
X71572342Y-116863704D01*
X71524721Y-116911325D01*
X71429478Y-116958946D01*
X71238993Y-116958946D01*
X71143751Y-117006568D01*
X71096129Y-117054189D01*
X71048508Y-117149431D01*
X71048508Y-117339917D01*
X71096129Y-117435159D01*
X71143751Y-117482780D01*
X71238993Y-117530402D01*
X71429478Y-117530402D01*
X71524721Y-117482780D01*
X71572342Y-117435159D01*
X71619964Y-117339917D01*
X71619964Y-117149431D01*
X71572342Y-117054189D01*
X71524721Y-117006568D01*
X71429478Y-116958946D01*
X67683112Y-102973159D02*
X67635491Y-103020780D01*
X67492627Y-103068402D01*
X67397384Y-103068402D01*
X67254521Y-103020780D01*
X67159278Y-102925538D01*
X67111657Y-102830295D01*
X67064035Y-102639810D01*
X67064035Y-102496946D01*
X67111657Y-102306461D01*
X67159278Y-102211219D01*
X67254521Y-102115976D01*
X67397384Y-102068355D01*
X67492627Y-102068355D01*
X67635491Y-102115976D01*
X67683112Y-102163597D01*
X68635538Y-103068402D02*
X68064082Y-103068402D01*
X68349810Y-103068402D02*
X68349810Y-102068355D01*
X68254568Y-102211219D01*
X68159325Y-102306461D01*
X68064082Y-102354082D01*
X69111751Y-103068402D02*
X69302236Y-103068402D01*
X69397478Y-103020780D01*
X69445100Y-102973159D01*
X69540342Y-102830295D01*
X69587964Y-102639810D01*
X69587964Y-102258840D01*
X69540342Y-102163597D01*
X69492721Y-102115976D01*
X69397478Y-102068355D01*
X69206993Y-102068355D01*
X69111751Y-102115976D01*
X69064129Y-102163597D01*
X69016508Y-102258840D01*
X69016508Y-102496946D01*
X69064129Y-102592189D01*
X69111751Y-102639810D01*
X69206993Y-102687431D01*
X69397478Y-102687431D01*
X69492721Y-102639810D01*
X69540342Y-102592189D01*
X69587964Y-102496946D01*
X176293794Y-73308771D02*
X176293794Y-72988750D01*
X176369989Y-72988750D01*
X176415706Y-73003989D01*
X176446184Y-73034467D01*
X176461424Y-73064945D01*
X176476663Y-73125902D01*
X176476663Y-73171619D01*
X176461424Y-73232575D01*
X176446184Y-73263054D01*
X176415706Y-73293532D01*
X176369989Y-73308771D01*
X176293794Y-73308771D01*
X176781445Y-73308771D02*
X176598575Y-73308771D01*
X176690010Y-73308771D02*
X176690010Y-72988750D01*
X176659532Y-73034467D01*
X176629054Y-73064945D01*
X176598575Y-73080184D01*
X169441835Y-80462423D02*
X169441835Y-79462329D01*
X169679953Y-79462329D01*
X169822823Y-79509953D01*
X169918070Y-79605200D01*
X169965694Y-79700447D01*
X170013317Y-79890941D01*
X170013317Y-80033811D01*
X169965694Y-80224305D01*
X169918070Y-80319552D01*
X169822823Y-80414799D01*
X169679953Y-80462423D01*
X169441835Y-80462423D01*
X170394305Y-79557576D02*
X170441929Y-79509953D01*
X170537176Y-79462329D01*
X170775294Y-79462329D01*
X170870541Y-79509953D01*
X170918164Y-79557576D01*
X170965788Y-79652823D01*
X170965788Y-79748070D01*
X170918164Y-79890941D01*
X170346682Y-80462423D01*
X170965788Y-80462423D01*
X172997835Y-80462423D02*
X172997835Y-79462329D01*
X173235953Y-79462329D01*
X173378823Y-79509953D01*
X173474070Y-79605200D01*
X173521694Y-79700447D01*
X173569317Y-79890941D01*
X173569317Y-80033811D01*
X173521694Y-80224305D01*
X173474070Y-80319552D01*
X173378823Y-80414799D01*
X173235953Y-80462423D01*
X172997835Y-80462423D01*
X173902682Y-79462329D02*
X174521788Y-79462329D01*
X174188423Y-79843317D01*
X174331294Y-79843317D01*
X174426541Y-79890941D01*
X174474164Y-79938564D01*
X174521788Y-80033811D01*
X174521788Y-80271929D01*
X174474164Y-80367176D01*
X174426541Y-80414799D01*
X174331294Y-80462423D01*
X174045552Y-80462423D01*
X173950305Y-80414799D01*
X173902682Y-80367176D01*
X160297835Y-124912423D02*
X160297835Y-123912329D01*
X160535953Y-123912329D01*
X160678823Y-123959953D01*
X160774070Y-124055200D01*
X160821694Y-124150447D01*
X160869317Y-124340941D01*
X160869317Y-124483811D01*
X160821694Y-124674305D01*
X160774070Y-124769552D01*
X160678823Y-124864799D01*
X160535953Y-124912423D01*
X160297835Y-124912423D01*
X161774164Y-123912329D02*
X161297929Y-123912329D01*
X161250305Y-124388564D01*
X161297929Y-124340941D01*
X161393176Y-124293317D01*
X161631294Y-124293317D01*
X161726541Y-124340941D01*
X161774164Y-124388564D01*
X161821788Y-124483811D01*
X161821788Y-124721929D01*
X161774164Y-124817176D01*
X161726541Y-124864799D01*
X161631294Y-124912423D01*
X161393176Y-124912423D01*
X161297929Y-124864799D01*
X161250305Y-124817176D01*
X154277835Y-97988423D02*
X154277835Y-96988329D01*
X154515953Y-96988329D01*
X154658823Y-97035953D01*
X154754070Y-97131200D01*
X154801694Y-97226447D01*
X154849317Y-97416941D01*
X154849317Y-97559811D01*
X154801694Y-97750305D01*
X154754070Y-97845552D01*
X154658823Y-97940799D01*
X154515953Y-97988423D01*
X154277835Y-97988423D01*
X155706541Y-96988329D02*
X155516047Y-96988329D01*
X155420799Y-97035953D01*
X155373176Y-97083576D01*
X155277929Y-97226447D01*
X155230305Y-97416941D01*
X155230305Y-97797929D01*
X155277929Y-97893176D01*
X155325552Y-97940799D01*
X155420799Y-97988423D01*
X155611294Y-97988423D01*
X155706541Y-97940799D01*
X155754164Y-97893176D01*
X155801788Y-97797929D01*
X155801788Y-97559811D01*
X155754164Y-97464564D01*
X155706541Y-97416941D01*
X155611294Y-97369317D01*
X155420799Y-97369317D01*
X155325552Y-97416941D01*
X155277929Y-97464564D01*
X155230305Y-97559811D01*
X120584765Y-108859643D02*
X120584765Y-107859549D01*
X120822883Y-107859549D01*
X120965753Y-107907173D01*
X121061000Y-108002420D01*
X121108624Y-108097667D01*
X121156247Y-108288161D01*
X121156247Y-108431031D01*
X121108624Y-108621525D01*
X121061000Y-108716772D01*
X120965753Y-108812019D01*
X120822883Y-108859643D01*
X120584765Y-108859643D01*
X121489612Y-107859549D02*
X122156341Y-107859549D01*
X121727729Y-108859643D01*
X61739794Y-110634771D02*
X61739794Y-110314750D01*
X61815989Y-110314750D01*
X61861706Y-110329989D01*
X61892184Y-110360467D01*
X61907424Y-110390945D01*
X61922663Y-110451902D01*
X61922663Y-110497619D01*
X61907424Y-110558575D01*
X61892184Y-110589054D01*
X61861706Y-110619532D01*
X61815989Y-110634771D01*
X61739794Y-110634771D01*
X62075054Y-110634771D02*
X62136010Y-110634771D01*
X62166488Y-110619532D01*
X62181727Y-110604293D01*
X62212205Y-110558575D01*
X62227445Y-110497619D01*
X62227445Y-110375706D01*
X62212205Y-110345228D01*
X62196966Y-110329989D01*
X62166488Y-110314750D01*
X62105532Y-110314750D01*
X62075054Y-110329989D01*
X62059815Y-110345228D01*
X62044575Y-110375706D01*
X62044575Y-110451902D01*
X62059815Y-110482380D01*
X62075054Y-110497619D01*
X62105532Y-110512858D01*
X62166488Y-110512858D01*
X62196966Y-110497619D01*
X62212205Y-110482380D01*
X62227445Y-110451902D01*
X194278591Y-87865974D02*
X194278591Y-86838013D01*
X194523344Y-86838013D01*
X194670196Y-86886964D01*
X194768097Y-86984865D01*
X194817047Y-87082766D01*
X194865998Y-87278568D01*
X194865998Y-87425420D01*
X194817047Y-87621222D01*
X194768097Y-87719123D01*
X194670196Y-87817024D01*
X194523344Y-87865974D01*
X194278591Y-87865974D01*
X195747107Y-87180667D02*
X195747107Y-87865974D01*
X195502354Y-86789063D02*
X195257602Y-87523321D01*
X195893959Y-87523321D01*
X64773266Y-93175029D02*
X64773266Y-92147068D01*
X65018019Y-92147068D01*
X65164871Y-92196019D01*
X65262772Y-92293920D01*
X65311722Y-92391821D01*
X65360673Y-92587623D01*
X65360673Y-92734475D01*
X65311722Y-92930277D01*
X65262772Y-93028178D01*
X65164871Y-93126079D01*
X65018019Y-93175029D01*
X64773266Y-93175029D01*
X65948079Y-92587623D02*
X65850178Y-92538673D01*
X65801227Y-92489722D01*
X65752277Y-92391821D01*
X65752277Y-92342871D01*
X65801227Y-92244970D01*
X65850178Y-92196019D01*
X65948079Y-92147068D01*
X66143881Y-92147068D01*
X66241782Y-92196019D01*
X66290733Y-92244970D01*
X66339683Y-92342871D01*
X66339683Y-92391821D01*
X66290733Y-92489722D01*
X66241782Y-92538673D01*
X66143881Y-92587623D01*
X65948079Y-92587623D01*
X65850178Y-92636574D01*
X65801227Y-92685524D01*
X65752277Y-92783425D01*
X65752277Y-92979227D01*
X65801227Y-93077128D01*
X65850178Y-93126079D01*
X65948079Y-93175029D01*
X66143881Y-93175029D01*
X66241782Y-93126079D01*
X66290733Y-93077128D01*
X66339683Y-92979227D01*
X66339683Y-92783425D01*
X66290733Y-92685524D01*
X66241782Y-92636574D01*
X66143881Y-92587623D01*
X144482867Y-65236871D02*
X144817119Y-66239627D01*
X145151371Y-65236871D01*
X146058626Y-66239627D02*
X145724374Y-65762124D01*
X145485623Y-66239627D02*
X145485623Y-65236871D01*
X145867625Y-65236871D01*
X145963126Y-65284622D01*
X146010876Y-65332372D01*
X146058626Y-65427872D01*
X146058626Y-65571123D01*
X146010876Y-65666624D01*
X145963126Y-65714374D01*
X145867625Y-65762124D01*
X145485623Y-65762124D01*
X147013632Y-66239627D02*
X146440628Y-66239627D01*
X146727130Y-66239627D02*
X146727130Y-65236871D01*
X146631630Y-65380122D01*
X146536129Y-65475623D01*
X146440628Y-65523373D01*
D17*
X151134380Y-87455333D02*
X151848666Y-87455333D01*
X151991523Y-87502952D01*
X152086761Y-87598190D01*
X152134380Y-87741047D01*
X152134380Y-87836285D01*
X151467714Y-86550571D02*
X152134380Y-86550571D01*
X151086761Y-86788666D02*
X151801047Y-87026761D01*
X151801047Y-86407714D01*
D18*
X179443142Y-131675142D02*
X179395523Y-131722761D01*
X179252666Y-131770380D01*
X179157428Y-131770380D01*
X179014571Y-131722761D01*
X178919333Y-131627523D01*
X178871714Y-131532285D01*
X178824095Y-131341809D01*
X178824095Y-131198952D01*
X178871714Y-131008476D01*
X178919333Y-130913238D01*
X179014571Y-130818000D01*
X179157428Y-130770380D01*
X179252666Y-130770380D01*
X179395523Y-130818000D01*
X179443142Y-130865619D01*
X180395523Y-131770380D02*
X179824095Y-131770380D01*
X180109809Y-131770380D02*
X180109809Y-130770380D01*
X180014571Y-130913238D01*
X179919333Y-131008476D01*
X179824095Y-131056095D01*
X180728857Y-130770380D02*
X181347904Y-130770380D01*
X181014571Y-131151333D01*
X181157428Y-131151333D01*
X181252666Y-131198952D01*
X181300285Y-131246571D01*
X181347904Y-131341809D01*
X181347904Y-131579904D01*
X181300285Y-131675142D01*
X181252666Y-131722761D01*
X181157428Y-131770380D01*
X180871714Y-131770380D01*
X180776476Y-131722761D01*
X180728857Y-131675142D01*
X174363142Y-95607142D02*
X174315523Y-95654761D01*
X174172666Y-95702380D01*
X174077428Y-95702380D01*
X173934571Y-95654761D01*
X173839333Y-95559523D01*
X173791714Y-95464285D01*
X173744095Y-95273809D01*
X173744095Y-95130952D01*
X173791714Y-94940476D01*
X173839333Y-94845238D01*
X173934571Y-94750000D01*
X174077428Y-94702380D01*
X174172666Y-94702380D01*
X174315523Y-94750000D01*
X174363142Y-94797619D01*
X175315523Y-95702380D02*
X174744095Y-95702380D01*
X175029809Y-95702380D02*
X175029809Y-94702380D01*
X174934571Y-94845238D01*
X174839333Y-94940476D01*
X174744095Y-94988095D01*
X175696476Y-94797619D02*
X175744095Y-94750000D01*
X175839333Y-94702380D01*
X176077428Y-94702380D01*
X176172666Y-94750000D01*
X176220285Y-94797619D01*
X176267904Y-94892857D01*
X176267904Y-94988095D01*
X176220285Y-95130952D01*
X175648857Y-95702380D01*
X176267904Y-95702380D01*
M02*
