G04 #@! TF.GenerationSoftware,KiCad,Pcbnew,(5.1.4)-1*
G04 #@! TF.CreationDate,2021-04-20T00:23:46+05:30*
G04 #@! TF.ProjectId,transformers-board,7472616e-7366-46f7-926d-6572732d626f,rev?*
G04 #@! TF.SameCoordinates,Original*
G04 #@! TF.FileFunction,Paste,Top*
G04 #@! TF.FilePolarity,Positive*
%FSLAX46Y46*%
G04 Gerber Fmt 4.6, Leading zero omitted, Abs format (unit mm)*
G04 Created by KiCad (PCBNEW (5.1.4)-1) date 2021-04-20 00:23:46*
%MOMM*%
%LPD*%
G04 APERTURE LIST*
%ADD10C,0.100000*%
%ADD11C,0.975000*%
%ADD12R,2.120000X4.460000*%
%ADD13C,2.100000*%
%ADD14R,1.300000X0.700000*%
%ADD15R,0.700000X1.300000*%
%ADD16R,0.920000X1.420000*%
%ADD17R,3.320000X1.240000*%
%ADD18R,0.800000X0.800000*%
%ADD19R,1.220000X1.120000*%
%ADD20R,1.120000X1.220000*%
%ADD21R,2.210000X6.060000*%
G04 APERTURE END LIST*
D10*
G36*
X170660142Y-71649674D02*
G01*
X170683803Y-71653184D01*
X170707007Y-71658996D01*
X170729529Y-71667054D01*
X170751153Y-71677282D01*
X170771670Y-71689579D01*
X170790883Y-71703829D01*
X170808607Y-71719893D01*
X170824671Y-71737617D01*
X170838921Y-71756830D01*
X170851218Y-71777347D01*
X170861446Y-71798971D01*
X170869504Y-71821493D01*
X170875316Y-71844697D01*
X170878826Y-71868358D01*
X170880000Y-71892250D01*
X170880000Y-72379750D01*
X170878826Y-72403642D01*
X170875316Y-72427303D01*
X170869504Y-72450507D01*
X170861446Y-72473029D01*
X170851218Y-72494653D01*
X170838921Y-72515170D01*
X170824671Y-72534383D01*
X170808607Y-72552107D01*
X170790883Y-72568171D01*
X170771670Y-72582421D01*
X170751153Y-72594718D01*
X170729529Y-72604946D01*
X170707007Y-72613004D01*
X170683803Y-72618816D01*
X170660142Y-72622326D01*
X170636250Y-72623500D01*
X169723750Y-72623500D01*
X169699858Y-72622326D01*
X169676197Y-72618816D01*
X169652993Y-72613004D01*
X169630471Y-72604946D01*
X169608847Y-72594718D01*
X169588330Y-72582421D01*
X169569117Y-72568171D01*
X169551393Y-72552107D01*
X169535329Y-72534383D01*
X169521079Y-72515170D01*
X169508782Y-72494653D01*
X169498554Y-72473029D01*
X169490496Y-72450507D01*
X169484684Y-72427303D01*
X169481174Y-72403642D01*
X169480000Y-72379750D01*
X169480000Y-71892250D01*
X169481174Y-71868358D01*
X169484684Y-71844697D01*
X169490496Y-71821493D01*
X169498554Y-71798971D01*
X169508782Y-71777347D01*
X169521079Y-71756830D01*
X169535329Y-71737617D01*
X169551393Y-71719893D01*
X169569117Y-71703829D01*
X169588330Y-71689579D01*
X169608847Y-71677282D01*
X169630471Y-71667054D01*
X169652993Y-71658996D01*
X169676197Y-71653184D01*
X169699858Y-71649674D01*
X169723750Y-71648500D01*
X170636250Y-71648500D01*
X170660142Y-71649674D01*
X170660142Y-71649674D01*
G37*
D11*
X170180000Y-72136000D03*
D10*
G36*
X170660142Y-69774674D02*
G01*
X170683803Y-69778184D01*
X170707007Y-69783996D01*
X170729529Y-69792054D01*
X170751153Y-69802282D01*
X170771670Y-69814579D01*
X170790883Y-69828829D01*
X170808607Y-69844893D01*
X170824671Y-69862617D01*
X170838921Y-69881830D01*
X170851218Y-69902347D01*
X170861446Y-69923971D01*
X170869504Y-69946493D01*
X170875316Y-69969697D01*
X170878826Y-69993358D01*
X170880000Y-70017250D01*
X170880000Y-70504750D01*
X170878826Y-70528642D01*
X170875316Y-70552303D01*
X170869504Y-70575507D01*
X170861446Y-70598029D01*
X170851218Y-70619653D01*
X170838921Y-70640170D01*
X170824671Y-70659383D01*
X170808607Y-70677107D01*
X170790883Y-70693171D01*
X170771670Y-70707421D01*
X170751153Y-70719718D01*
X170729529Y-70729946D01*
X170707007Y-70738004D01*
X170683803Y-70743816D01*
X170660142Y-70747326D01*
X170636250Y-70748500D01*
X169723750Y-70748500D01*
X169699858Y-70747326D01*
X169676197Y-70743816D01*
X169652993Y-70738004D01*
X169630471Y-70729946D01*
X169608847Y-70719718D01*
X169588330Y-70707421D01*
X169569117Y-70693171D01*
X169551393Y-70677107D01*
X169535329Y-70659383D01*
X169521079Y-70640170D01*
X169508782Y-70619653D01*
X169498554Y-70598029D01*
X169490496Y-70575507D01*
X169484684Y-70552303D01*
X169481174Y-70528642D01*
X169480000Y-70504750D01*
X169480000Y-70017250D01*
X169481174Y-69993358D01*
X169484684Y-69969697D01*
X169490496Y-69946493D01*
X169498554Y-69923971D01*
X169508782Y-69902347D01*
X169521079Y-69881830D01*
X169535329Y-69862617D01*
X169551393Y-69844893D01*
X169569117Y-69828829D01*
X169588330Y-69814579D01*
X169608847Y-69802282D01*
X169630471Y-69792054D01*
X169652993Y-69783996D01*
X169676197Y-69778184D01*
X169699858Y-69774674D01*
X169723750Y-69773500D01*
X170636250Y-69773500D01*
X170660142Y-69774674D01*
X170660142Y-69774674D01*
G37*
D11*
X170180000Y-70261000D03*
D10*
G36*
X174216142Y-69774674D02*
G01*
X174239803Y-69778184D01*
X174263007Y-69783996D01*
X174285529Y-69792054D01*
X174307153Y-69802282D01*
X174327670Y-69814579D01*
X174346883Y-69828829D01*
X174364607Y-69844893D01*
X174380671Y-69862617D01*
X174394921Y-69881830D01*
X174407218Y-69902347D01*
X174417446Y-69923971D01*
X174425504Y-69946493D01*
X174431316Y-69969697D01*
X174434826Y-69993358D01*
X174436000Y-70017250D01*
X174436000Y-70504750D01*
X174434826Y-70528642D01*
X174431316Y-70552303D01*
X174425504Y-70575507D01*
X174417446Y-70598029D01*
X174407218Y-70619653D01*
X174394921Y-70640170D01*
X174380671Y-70659383D01*
X174364607Y-70677107D01*
X174346883Y-70693171D01*
X174327670Y-70707421D01*
X174307153Y-70719718D01*
X174285529Y-70729946D01*
X174263007Y-70738004D01*
X174239803Y-70743816D01*
X174216142Y-70747326D01*
X174192250Y-70748500D01*
X173279750Y-70748500D01*
X173255858Y-70747326D01*
X173232197Y-70743816D01*
X173208993Y-70738004D01*
X173186471Y-70729946D01*
X173164847Y-70719718D01*
X173144330Y-70707421D01*
X173125117Y-70693171D01*
X173107393Y-70677107D01*
X173091329Y-70659383D01*
X173077079Y-70640170D01*
X173064782Y-70619653D01*
X173054554Y-70598029D01*
X173046496Y-70575507D01*
X173040684Y-70552303D01*
X173037174Y-70528642D01*
X173036000Y-70504750D01*
X173036000Y-70017250D01*
X173037174Y-69993358D01*
X173040684Y-69969697D01*
X173046496Y-69946493D01*
X173054554Y-69923971D01*
X173064782Y-69902347D01*
X173077079Y-69881830D01*
X173091329Y-69862617D01*
X173107393Y-69844893D01*
X173125117Y-69828829D01*
X173144330Y-69814579D01*
X173164847Y-69802282D01*
X173186471Y-69792054D01*
X173208993Y-69783996D01*
X173232197Y-69778184D01*
X173255858Y-69774674D01*
X173279750Y-69773500D01*
X174192250Y-69773500D01*
X174216142Y-69774674D01*
X174216142Y-69774674D01*
G37*
D11*
X173736000Y-70261000D03*
D10*
G36*
X174216142Y-71649674D02*
G01*
X174239803Y-71653184D01*
X174263007Y-71658996D01*
X174285529Y-71667054D01*
X174307153Y-71677282D01*
X174327670Y-71689579D01*
X174346883Y-71703829D01*
X174364607Y-71719893D01*
X174380671Y-71737617D01*
X174394921Y-71756830D01*
X174407218Y-71777347D01*
X174417446Y-71798971D01*
X174425504Y-71821493D01*
X174431316Y-71844697D01*
X174434826Y-71868358D01*
X174436000Y-71892250D01*
X174436000Y-72379750D01*
X174434826Y-72403642D01*
X174431316Y-72427303D01*
X174425504Y-72450507D01*
X174417446Y-72473029D01*
X174407218Y-72494653D01*
X174394921Y-72515170D01*
X174380671Y-72534383D01*
X174364607Y-72552107D01*
X174346883Y-72568171D01*
X174327670Y-72582421D01*
X174307153Y-72594718D01*
X174285529Y-72604946D01*
X174263007Y-72613004D01*
X174239803Y-72618816D01*
X174216142Y-72622326D01*
X174192250Y-72623500D01*
X173279750Y-72623500D01*
X173255858Y-72622326D01*
X173232197Y-72618816D01*
X173208993Y-72613004D01*
X173186471Y-72604946D01*
X173164847Y-72594718D01*
X173144330Y-72582421D01*
X173125117Y-72568171D01*
X173107393Y-72552107D01*
X173091329Y-72534383D01*
X173077079Y-72515170D01*
X173064782Y-72494653D01*
X173054554Y-72473029D01*
X173046496Y-72450507D01*
X173040684Y-72427303D01*
X173037174Y-72403642D01*
X173036000Y-72379750D01*
X173036000Y-71892250D01*
X173037174Y-71868358D01*
X173040684Y-71844697D01*
X173046496Y-71821493D01*
X173054554Y-71798971D01*
X173064782Y-71777347D01*
X173077079Y-71756830D01*
X173091329Y-71737617D01*
X173107393Y-71719893D01*
X173125117Y-71703829D01*
X173144330Y-71689579D01*
X173164847Y-71677282D01*
X173186471Y-71667054D01*
X173208993Y-71658996D01*
X173232197Y-71653184D01*
X173255858Y-71649674D01*
X173279750Y-71648500D01*
X174192250Y-71648500D01*
X174216142Y-71649674D01*
X174216142Y-71649674D01*
G37*
D11*
X173736000Y-72136000D03*
D10*
G36*
X164254642Y-66865174D02*
G01*
X164278303Y-66868684D01*
X164301507Y-66874496D01*
X164324029Y-66882554D01*
X164345653Y-66892782D01*
X164366170Y-66905079D01*
X164385383Y-66919329D01*
X164403107Y-66935393D01*
X164419171Y-66953117D01*
X164433421Y-66972330D01*
X164445718Y-66992847D01*
X164455946Y-67014471D01*
X164464004Y-67036993D01*
X164469816Y-67060197D01*
X164473326Y-67083858D01*
X164474500Y-67107750D01*
X164474500Y-68020250D01*
X164473326Y-68044142D01*
X164469816Y-68067803D01*
X164464004Y-68091007D01*
X164455946Y-68113529D01*
X164445718Y-68135153D01*
X164433421Y-68155670D01*
X164419171Y-68174883D01*
X164403107Y-68192607D01*
X164385383Y-68208671D01*
X164366170Y-68222921D01*
X164345653Y-68235218D01*
X164324029Y-68245446D01*
X164301507Y-68253504D01*
X164278303Y-68259316D01*
X164254642Y-68262826D01*
X164230750Y-68264000D01*
X163743250Y-68264000D01*
X163719358Y-68262826D01*
X163695697Y-68259316D01*
X163672493Y-68253504D01*
X163649971Y-68245446D01*
X163628347Y-68235218D01*
X163607830Y-68222921D01*
X163588617Y-68208671D01*
X163570893Y-68192607D01*
X163554829Y-68174883D01*
X163540579Y-68155670D01*
X163528282Y-68135153D01*
X163518054Y-68113529D01*
X163509996Y-68091007D01*
X163504184Y-68067803D01*
X163500674Y-68044142D01*
X163499500Y-68020250D01*
X163499500Y-67107750D01*
X163500674Y-67083858D01*
X163504184Y-67060197D01*
X163509996Y-67036993D01*
X163518054Y-67014471D01*
X163528282Y-66992847D01*
X163540579Y-66972330D01*
X163554829Y-66953117D01*
X163570893Y-66935393D01*
X163588617Y-66919329D01*
X163607830Y-66905079D01*
X163628347Y-66892782D01*
X163649971Y-66882554D01*
X163672493Y-66874496D01*
X163695697Y-66868684D01*
X163719358Y-66865174D01*
X163743250Y-66864000D01*
X164230750Y-66864000D01*
X164254642Y-66865174D01*
X164254642Y-66865174D01*
G37*
D11*
X163987000Y-67564000D03*
D10*
G36*
X166129642Y-66865174D02*
G01*
X166153303Y-66868684D01*
X166176507Y-66874496D01*
X166199029Y-66882554D01*
X166220653Y-66892782D01*
X166241170Y-66905079D01*
X166260383Y-66919329D01*
X166278107Y-66935393D01*
X166294171Y-66953117D01*
X166308421Y-66972330D01*
X166320718Y-66992847D01*
X166330946Y-67014471D01*
X166339004Y-67036993D01*
X166344816Y-67060197D01*
X166348326Y-67083858D01*
X166349500Y-67107750D01*
X166349500Y-68020250D01*
X166348326Y-68044142D01*
X166344816Y-68067803D01*
X166339004Y-68091007D01*
X166330946Y-68113529D01*
X166320718Y-68135153D01*
X166308421Y-68155670D01*
X166294171Y-68174883D01*
X166278107Y-68192607D01*
X166260383Y-68208671D01*
X166241170Y-68222921D01*
X166220653Y-68235218D01*
X166199029Y-68245446D01*
X166176507Y-68253504D01*
X166153303Y-68259316D01*
X166129642Y-68262826D01*
X166105750Y-68264000D01*
X165618250Y-68264000D01*
X165594358Y-68262826D01*
X165570697Y-68259316D01*
X165547493Y-68253504D01*
X165524971Y-68245446D01*
X165503347Y-68235218D01*
X165482830Y-68222921D01*
X165463617Y-68208671D01*
X165445893Y-68192607D01*
X165429829Y-68174883D01*
X165415579Y-68155670D01*
X165403282Y-68135153D01*
X165393054Y-68113529D01*
X165384996Y-68091007D01*
X165379184Y-68067803D01*
X165375674Y-68044142D01*
X165374500Y-68020250D01*
X165374500Y-67107750D01*
X165375674Y-67083858D01*
X165379184Y-67060197D01*
X165384996Y-67036993D01*
X165393054Y-67014471D01*
X165403282Y-66992847D01*
X165415579Y-66972330D01*
X165429829Y-66953117D01*
X165445893Y-66935393D01*
X165463617Y-66919329D01*
X165482830Y-66905079D01*
X165503347Y-66892782D01*
X165524971Y-66882554D01*
X165547493Y-66874496D01*
X165570697Y-66868684D01*
X165594358Y-66865174D01*
X165618250Y-66864000D01*
X166105750Y-66864000D01*
X166129642Y-66865174D01*
X166129642Y-66865174D01*
G37*
D11*
X165862000Y-67564000D03*
D10*
G36*
X169177642Y-60515174D02*
G01*
X169201303Y-60518684D01*
X169224507Y-60524496D01*
X169247029Y-60532554D01*
X169268653Y-60542782D01*
X169289170Y-60555079D01*
X169308383Y-60569329D01*
X169326107Y-60585393D01*
X169342171Y-60603117D01*
X169356421Y-60622330D01*
X169368718Y-60642847D01*
X169378946Y-60664471D01*
X169387004Y-60686993D01*
X169392816Y-60710197D01*
X169396326Y-60733858D01*
X169397500Y-60757750D01*
X169397500Y-61670250D01*
X169396326Y-61694142D01*
X169392816Y-61717803D01*
X169387004Y-61741007D01*
X169378946Y-61763529D01*
X169368718Y-61785153D01*
X169356421Y-61805670D01*
X169342171Y-61824883D01*
X169326107Y-61842607D01*
X169308383Y-61858671D01*
X169289170Y-61872921D01*
X169268653Y-61885218D01*
X169247029Y-61895446D01*
X169224507Y-61903504D01*
X169201303Y-61909316D01*
X169177642Y-61912826D01*
X169153750Y-61914000D01*
X168666250Y-61914000D01*
X168642358Y-61912826D01*
X168618697Y-61909316D01*
X168595493Y-61903504D01*
X168572971Y-61895446D01*
X168551347Y-61885218D01*
X168530830Y-61872921D01*
X168511617Y-61858671D01*
X168493893Y-61842607D01*
X168477829Y-61824883D01*
X168463579Y-61805670D01*
X168451282Y-61785153D01*
X168441054Y-61763529D01*
X168432996Y-61741007D01*
X168427184Y-61717803D01*
X168423674Y-61694142D01*
X168422500Y-61670250D01*
X168422500Y-60757750D01*
X168423674Y-60733858D01*
X168427184Y-60710197D01*
X168432996Y-60686993D01*
X168441054Y-60664471D01*
X168451282Y-60642847D01*
X168463579Y-60622330D01*
X168477829Y-60603117D01*
X168493893Y-60585393D01*
X168511617Y-60569329D01*
X168530830Y-60555079D01*
X168551347Y-60542782D01*
X168572971Y-60532554D01*
X168595493Y-60524496D01*
X168618697Y-60518684D01*
X168642358Y-60515174D01*
X168666250Y-60514000D01*
X169153750Y-60514000D01*
X169177642Y-60515174D01*
X169177642Y-60515174D01*
G37*
D11*
X168910000Y-61214000D03*
D10*
G36*
X167302642Y-60515174D02*
G01*
X167326303Y-60518684D01*
X167349507Y-60524496D01*
X167372029Y-60532554D01*
X167393653Y-60542782D01*
X167414170Y-60555079D01*
X167433383Y-60569329D01*
X167451107Y-60585393D01*
X167467171Y-60603117D01*
X167481421Y-60622330D01*
X167493718Y-60642847D01*
X167503946Y-60664471D01*
X167512004Y-60686993D01*
X167517816Y-60710197D01*
X167521326Y-60733858D01*
X167522500Y-60757750D01*
X167522500Y-61670250D01*
X167521326Y-61694142D01*
X167517816Y-61717803D01*
X167512004Y-61741007D01*
X167503946Y-61763529D01*
X167493718Y-61785153D01*
X167481421Y-61805670D01*
X167467171Y-61824883D01*
X167451107Y-61842607D01*
X167433383Y-61858671D01*
X167414170Y-61872921D01*
X167393653Y-61885218D01*
X167372029Y-61895446D01*
X167349507Y-61903504D01*
X167326303Y-61909316D01*
X167302642Y-61912826D01*
X167278750Y-61914000D01*
X166791250Y-61914000D01*
X166767358Y-61912826D01*
X166743697Y-61909316D01*
X166720493Y-61903504D01*
X166697971Y-61895446D01*
X166676347Y-61885218D01*
X166655830Y-61872921D01*
X166636617Y-61858671D01*
X166618893Y-61842607D01*
X166602829Y-61824883D01*
X166588579Y-61805670D01*
X166576282Y-61785153D01*
X166566054Y-61763529D01*
X166557996Y-61741007D01*
X166552184Y-61717803D01*
X166548674Y-61694142D01*
X166547500Y-61670250D01*
X166547500Y-60757750D01*
X166548674Y-60733858D01*
X166552184Y-60710197D01*
X166557996Y-60686993D01*
X166566054Y-60664471D01*
X166576282Y-60642847D01*
X166588579Y-60622330D01*
X166602829Y-60603117D01*
X166618893Y-60585393D01*
X166636617Y-60569329D01*
X166655830Y-60555079D01*
X166676347Y-60542782D01*
X166697971Y-60532554D01*
X166720493Y-60524496D01*
X166743697Y-60518684D01*
X166767358Y-60515174D01*
X166791250Y-60514000D01*
X167278750Y-60514000D01*
X167302642Y-60515174D01*
X167302642Y-60515174D01*
G37*
D11*
X167035000Y-61214000D03*
D10*
G36*
X145006142Y-72079174D02*
G01*
X145029803Y-72082684D01*
X145053007Y-72088496D01*
X145075529Y-72096554D01*
X145097153Y-72106782D01*
X145117670Y-72119079D01*
X145136883Y-72133329D01*
X145154607Y-72149393D01*
X145170671Y-72167117D01*
X145184921Y-72186330D01*
X145197218Y-72206847D01*
X145207446Y-72228471D01*
X145215504Y-72250993D01*
X145221316Y-72274197D01*
X145224826Y-72297858D01*
X145226000Y-72321750D01*
X145226000Y-72809250D01*
X145224826Y-72833142D01*
X145221316Y-72856803D01*
X145215504Y-72880007D01*
X145207446Y-72902529D01*
X145197218Y-72924153D01*
X145184921Y-72944670D01*
X145170671Y-72963883D01*
X145154607Y-72981607D01*
X145136883Y-72997671D01*
X145117670Y-73011921D01*
X145097153Y-73024218D01*
X145075529Y-73034446D01*
X145053007Y-73042504D01*
X145029803Y-73048316D01*
X145006142Y-73051826D01*
X144982250Y-73053000D01*
X144069750Y-73053000D01*
X144045858Y-73051826D01*
X144022197Y-73048316D01*
X143998993Y-73042504D01*
X143976471Y-73034446D01*
X143954847Y-73024218D01*
X143934330Y-73011921D01*
X143915117Y-72997671D01*
X143897393Y-72981607D01*
X143881329Y-72963883D01*
X143867079Y-72944670D01*
X143854782Y-72924153D01*
X143844554Y-72902529D01*
X143836496Y-72880007D01*
X143830684Y-72856803D01*
X143827174Y-72833142D01*
X143826000Y-72809250D01*
X143826000Y-72321750D01*
X143827174Y-72297858D01*
X143830684Y-72274197D01*
X143836496Y-72250993D01*
X143844554Y-72228471D01*
X143854782Y-72206847D01*
X143867079Y-72186330D01*
X143881329Y-72167117D01*
X143897393Y-72149393D01*
X143915117Y-72133329D01*
X143934330Y-72119079D01*
X143954847Y-72106782D01*
X143976471Y-72096554D01*
X143998993Y-72088496D01*
X144022197Y-72082684D01*
X144045858Y-72079174D01*
X144069750Y-72078000D01*
X144982250Y-72078000D01*
X145006142Y-72079174D01*
X145006142Y-72079174D01*
G37*
D11*
X144526000Y-72565500D03*
D10*
G36*
X145006142Y-70204174D02*
G01*
X145029803Y-70207684D01*
X145053007Y-70213496D01*
X145075529Y-70221554D01*
X145097153Y-70231782D01*
X145117670Y-70244079D01*
X145136883Y-70258329D01*
X145154607Y-70274393D01*
X145170671Y-70292117D01*
X145184921Y-70311330D01*
X145197218Y-70331847D01*
X145207446Y-70353471D01*
X145215504Y-70375993D01*
X145221316Y-70399197D01*
X145224826Y-70422858D01*
X145226000Y-70446750D01*
X145226000Y-70934250D01*
X145224826Y-70958142D01*
X145221316Y-70981803D01*
X145215504Y-71005007D01*
X145207446Y-71027529D01*
X145197218Y-71049153D01*
X145184921Y-71069670D01*
X145170671Y-71088883D01*
X145154607Y-71106607D01*
X145136883Y-71122671D01*
X145117670Y-71136921D01*
X145097153Y-71149218D01*
X145075529Y-71159446D01*
X145053007Y-71167504D01*
X145029803Y-71173316D01*
X145006142Y-71176826D01*
X144982250Y-71178000D01*
X144069750Y-71178000D01*
X144045858Y-71176826D01*
X144022197Y-71173316D01*
X143998993Y-71167504D01*
X143976471Y-71159446D01*
X143954847Y-71149218D01*
X143934330Y-71136921D01*
X143915117Y-71122671D01*
X143897393Y-71106607D01*
X143881329Y-71088883D01*
X143867079Y-71069670D01*
X143854782Y-71049153D01*
X143844554Y-71027529D01*
X143836496Y-71005007D01*
X143830684Y-70981803D01*
X143827174Y-70958142D01*
X143826000Y-70934250D01*
X143826000Y-70446750D01*
X143827174Y-70422858D01*
X143830684Y-70399197D01*
X143836496Y-70375993D01*
X143844554Y-70353471D01*
X143854782Y-70331847D01*
X143867079Y-70311330D01*
X143881329Y-70292117D01*
X143897393Y-70274393D01*
X143915117Y-70258329D01*
X143934330Y-70244079D01*
X143954847Y-70231782D01*
X143976471Y-70221554D01*
X143998993Y-70213496D01*
X144022197Y-70207684D01*
X144045858Y-70204174D01*
X144069750Y-70203000D01*
X144982250Y-70203000D01*
X145006142Y-70204174D01*
X145006142Y-70204174D01*
G37*
D11*
X144526000Y-70690500D03*
D12*
X204216000Y-127207000D03*
X204216000Y-118157000D03*
X204216000Y-109728000D03*
X204216000Y-100678000D03*
X189230000Y-127000000D03*
X189230000Y-117950000D03*
X189230000Y-109634000D03*
X189230000Y-100584000D03*
D10*
G36*
X135862142Y-78761674D02*
G01*
X135885803Y-78765184D01*
X135909007Y-78770996D01*
X135931529Y-78779054D01*
X135953153Y-78789282D01*
X135973670Y-78801579D01*
X135992883Y-78815829D01*
X136010607Y-78831893D01*
X136026671Y-78849617D01*
X136040921Y-78868830D01*
X136053218Y-78889347D01*
X136063446Y-78910971D01*
X136071504Y-78933493D01*
X136077316Y-78956697D01*
X136080826Y-78980358D01*
X136082000Y-79004250D01*
X136082000Y-79491750D01*
X136080826Y-79515642D01*
X136077316Y-79539303D01*
X136071504Y-79562507D01*
X136063446Y-79585029D01*
X136053218Y-79606653D01*
X136040921Y-79627170D01*
X136026671Y-79646383D01*
X136010607Y-79664107D01*
X135992883Y-79680171D01*
X135973670Y-79694421D01*
X135953153Y-79706718D01*
X135931529Y-79716946D01*
X135909007Y-79725004D01*
X135885803Y-79730816D01*
X135862142Y-79734326D01*
X135838250Y-79735500D01*
X134925750Y-79735500D01*
X134901858Y-79734326D01*
X134878197Y-79730816D01*
X134854993Y-79725004D01*
X134832471Y-79716946D01*
X134810847Y-79706718D01*
X134790330Y-79694421D01*
X134771117Y-79680171D01*
X134753393Y-79664107D01*
X134737329Y-79646383D01*
X134723079Y-79627170D01*
X134710782Y-79606653D01*
X134700554Y-79585029D01*
X134692496Y-79562507D01*
X134686684Y-79539303D01*
X134683174Y-79515642D01*
X134682000Y-79491750D01*
X134682000Y-79004250D01*
X134683174Y-78980358D01*
X134686684Y-78956697D01*
X134692496Y-78933493D01*
X134700554Y-78910971D01*
X134710782Y-78889347D01*
X134723079Y-78868830D01*
X134737329Y-78849617D01*
X134753393Y-78831893D01*
X134771117Y-78815829D01*
X134790330Y-78801579D01*
X134810847Y-78789282D01*
X134832471Y-78779054D01*
X134854993Y-78770996D01*
X134878197Y-78765184D01*
X134901858Y-78761674D01*
X134925750Y-78760500D01*
X135838250Y-78760500D01*
X135862142Y-78761674D01*
X135862142Y-78761674D01*
G37*
D11*
X135382000Y-79248000D03*
D10*
G36*
X135862142Y-80636674D02*
G01*
X135885803Y-80640184D01*
X135909007Y-80645996D01*
X135931529Y-80654054D01*
X135953153Y-80664282D01*
X135973670Y-80676579D01*
X135992883Y-80690829D01*
X136010607Y-80706893D01*
X136026671Y-80724617D01*
X136040921Y-80743830D01*
X136053218Y-80764347D01*
X136063446Y-80785971D01*
X136071504Y-80808493D01*
X136077316Y-80831697D01*
X136080826Y-80855358D01*
X136082000Y-80879250D01*
X136082000Y-81366750D01*
X136080826Y-81390642D01*
X136077316Y-81414303D01*
X136071504Y-81437507D01*
X136063446Y-81460029D01*
X136053218Y-81481653D01*
X136040921Y-81502170D01*
X136026671Y-81521383D01*
X136010607Y-81539107D01*
X135992883Y-81555171D01*
X135973670Y-81569421D01*
X135953153Y-81581718D01*
X135931529Y-81591946D01*
X135909007Y-81600004D01*
X135885803Y-81605816D01*
X135862142Y-81609326D01*
X135838250Y-81610500D01*
X134925750Y-81610500D01*
X134901858Y-81609326D01*
X134878197Y-81605816D01*
X134854993Y-81600004D01*
X134832471Y-81591946D01*
X134810847Y-81581718D01*
X134790330Y-81569421D01*
X134771117Y-81555171D01*
X134753393Y-81539107D01*
X134737329Y-81521383D01*
X134723079Y-81502170D01*
X134710782Y-81481653D01*
X134700554Y-81460029D01*
X134692496Y-81437507D01*
X134686684Y-81414303D01*
X134683174Y-81390642D01*
X134682000Y-81366750D01*
X134682000Y-80879250D01*
X134683174Y-80855358D01*
X134686684Y-80831697D01*
X134692496Y-80808493D01*
X134700554Y-80785971D01*
X134710782Y-80764347D01*
X134723079Y-80743830D01*
X134737329Y-80724617D01*
X134753393Y-80706893D01*
X134771117Y-80690829D01*
X134790330Y-80676579D01*
X134810847Y-80664282D01*
X134832471Y-80654054D01*
X134854993Y-80645996D01*
X134878197Y-80640184D01*
X134901858Y-80636674D01*
X134925750Y-80635500D01*
X135838250Y-80635500D01*
X135862142Y-80636674D01*
X135862142Y-80636674D01*
G37*
D11*
X135382000Y-81123000D03*
D10*
G36*
X139870642Y-81851174D02*
G01*
X139894303Y-81854684D01*
X139917507Y-81860496D01*
X139940029Y-81868554D01*
X139961653Y-81878782D01*
X139982170Y-81891079D01*
X140001383Y-81905329D01*
X140019107Y-81921393D01*
X140035171Y-81939117D01*
X140049421Y-81958330D01*
X140061718Y-81978847D01*
X140071946Y-82000471D01*
X140080004Y-82022993D01*
X140085816Y-82046197D01*
X140089326Y-82069858D01*
X140090500Y-82093750D01*
X140090500Y-83006250D01*
X140089326Y-83030142D01*
X140085816Y-83053803D01*
X140080004Y-83077007D01*
X140071946Y-83099529D01*
X140061718Y-83121153D01*
X140049421Y-83141670D01*
X140035171Y-83160883D01*
X140019107Y-83178607D01*
X140001383Y-83194671D01*
X139982170Y-83208921D01*
X139961653Y-83221218D01*
X139940029Y-83231446D01*
X139917507Y-83239504D01*
X139894303Y-83245316D01*
X139870642Y-83248826D01*
X139846750Y-83250000D01*
X139359250Y-83250000D01*
X139335358Y-83248826D01*
X139311697Y-83245316D01*
X139288493Y-83239504D01*
X139265971Y-83231446D01*
X139244347Y-83221218D01*
X139223830Y-83208921D01*
X139204617Y-83194671D01*
X139186893Y-83178607D01*
X139170829Y-83160883D01*
X139156579Y-83141670D01*
X139144282Y-83121153D01*
X139134054Y-83099529D01*
X139125996Y-83077007D01*
X139120184Y-83053803D01*
X139116674Y-83030142D01*
X139115500Y-83006250D01*
X139115500Y-82093750D01*
X139116674Y-82069858D01*
X139120184Y-82046197D01*
X139125996Y-82022993D01*
X139134054Y-82000471D01*
X139144282Y-81978847D01*
X139156579Y-81958330D01*
X139170829Y-81939117D01*
X139186893Y-81921393D01*
X139204617Y-81905329D01*
X139223830Y-81891079D01*
X139244347Y-81878782D01*
X139265971Y-81868554D01*
X139288493Y-81860496D01*
X139311697Y-81854684D01*
X139335358Y-81851174D01*
X139359250Y-81850000D01*
X139846750Y-81850000D01*
X139870642Y-81851174D01*
X139870642Y-81851174D01*
G37*
D11*
X139603000Y-82550000D03*
D10*
G36*
X141745642Y-81851174D02*
G01*
X141769303Y-81854684D01*
X141792507Y-81860496D01*
X141815029Y-81868554D01*
X141836653Y-81878782D01*
X141857170Y-81891079D01*
X141876383Y-81905329D01*
X141894107Y-81921393D01*
X141910171Y-81939117D01*
X141924421Y-81958330D01*
X141936718Y-81978847D01*
X141946946Y-82000471D01*
X141955004Y-82022993D01*
X141960816Y-82046197D01*
X141964326Y-82069858D01*
X141965500Y-82093750D01*
X141965500Y-83006250D01*
X141964326Y-83030142D01*
X141960816Y-83053803D01*
X141955004Y-83077007D01*
X141946946Y-83099529D01*
X141936718Y-83121153D01*
X141924421Y-83141670D01*
X141910171Y-83160883D01*
X141894107Y-83178607D01*
X141876383Y-83194671D01*
X141857170Y-83208921D01*
X141836653Y-83221218D01*
X141815029Y-83231446D01*
X141792507Y-83239504D01*
X141769303Y-83245316D01*
X141745642Y-83248826D01*
X141721750Y-83250000D01*
X141234250Y-83250000D01*
X141210358Y-83248826D01*
X141186697Y-83245316D01*
X141163493Y-83239504D01*
X141140971Y-83231446D01*
X141119347Y-83221218D01*
X141098830Y-83208921D01*
X141079617Y-83194671D01*
X141061893Y-83178607D01*
X141045829Y-83160883D01*
X141031579Y-83141670D01*
X141019282Y-83121153D01*
X141009054Y-83099529D01*
X141000996Y-83077007D01*
X140995184Y-83053803D01*
X140991674Y-83030142D01*
X140990500Y-83006250D01*
X140990500Y-82093750D01*
X140991674Y-82069858D01*
X140995184Y-82046197D01*
X141000996Y-82022993D01*
X141009054Y-82000471D01*
X141019282Y-81978847D01*
X141031579Y-81958330D01*
X141045829Y-81939117D01*
X141061893Y-81921393D01*
X141079617Y-81905329D01*
X141098830Y-81891079D01*
X141119347Y-81878782D01*
X141140971Y-81868554D01*
X141163493Y-81860496D01*
X141186697Y-81854684D01*
X141210358Y-81851174D01*
X141234250Y-81850000D01*
X141721750Y-81850000D01*
X141745642Y-81851174D01*
X141745642Y-81851174D01*
G37*
D11*
X141478000Y-82550000D03*
D10*
G36*
X108500504Y-108933204D02*
G01*
X108524773Y-108936804D01*
X108548571Y-108942765D01*
X108571671Y-108951030D01*
X108593849Y-108961520D01*
X108614893Y-108974133D01*
X108634598Y-108988747D01*
X108652777Y-109005223D01*
X108669253Y-109023402D01*
X108683867Y-109043107D01*
X108696480Y-109064151D01*
X108706970Y-109086329D01*
X108715235Y-109109429D01*
X108721196Y-109133227D01*
X108724796Y-109157496D01*
X108726000Y-109182000D01*
X108726000Y-110782000D01*
X108724796Y-110806504D01*
X108721196Y-110830773D01*
X108715235Y-110854571D01*
X108706970Y-110877671D01*
X108696480Y-110899849D01*
X108683867Y-110920893D01*
X108669253Y-110940598D01*
X108652777Y-110958777D01*
X108634598Y-110975253D01*
X108614893Y-110989867D01*
X108593849Y-111002480D01*
X108571671Y-111012970D01*
X108548571Y-111021235D01*
X108524773Y-111027196D01*
X108500504Y-111030796D01*
X108476000Y-111032000D01*
X104376000Y-111032000D01*
X104351496Y-111030796D01*
X104327227Y-111027196D01*
X104303429Y-111021235D01*
X104280329Y-111012970D01*
X104258151Y-111002480D01*
X104237107Y-110989867D01*
X104217402Y-110975253D01*
X104199223Y-110958777D01*
X104182747Y-110940598D01*
X104168133Y-110920893D01*
X104155520Y-110899849D01*
X104145030Y-110877671D01*
X104136765Y-110854571D01*
X104130804Y-110830773D01*
X104127204Y-110806504D01*
X104126000Y-110782000D01*
X104126000Y-109182000D01*
X104127204Y-109157496D01*
X104130804Y-109133227D01*
X104136765Y-109109429D01*
X104145030Y-109086329D01*
X104155520Y-109064151D01*
X104168133Y-109043107D01*
X104182747Y-109023402D01*
X104199223Y-109005223D01*
X104217402Y-108988747D01*
X104237107Y-108974133D01*
X104258151Y-108961520D01*
X104280329Y-108951030D01*
X104303429Y-108942765D01*
X104327227Y-108936804D01*
X104351496Y-108933204D01*
X104376000Y-108932000D01*
X108476000Y-108932000D01*
X108500504Y-108933204D01*
X108500504Y-108933204D01*
G37*
D13*
X106426000Y-109982000D03*
D10*
G36*
X117300504Y-108933204D02*
G01*
X117324773Y-108936804D01*
X117348571Y-108942765D01*
X117371671Y-108951030D01*
X117393849Y-108961520D01*
X117414893Y-108974133D01*
X117434598Y-108988747D01*
X117452777Y-109005223D01*
X117469253Y-109023402D01*
X117483867Y-109043107D01*
X117496480Y-109064151D01*
X117506970Y-109086329D01*
X117515235Y-109109429D01*
X117521196Y-109133227D01*
X117524796Y-109157496D01*
X117526000Y-109182000D01*
X117526000Y-110782000D01*
X117524796Y-110806504D01*
X117521196Y-110830773D01*
X117515235Y-110854571D01*
X117506970Y-110877671D01*
X117496480Y-110899849D01*
X117483867Y-110920893D01*
X117469253Y-110940598D01*
X117452777Y-110958777D01*
X117434598Y-110975253D01*
X117414893Y-110989867D01*
X117393849Y-111002480D01*
X117371671Y-111012970D01*
X117348571Y-111021235D01*
X117324773Y-111027196D01*
X117300504Y-111030796D01*
X117276000Y-111032000D01*
X113176000Y-111032000D01*
X113151496Y-111030796D01*
X113127227Y-111027196D01*
X113103429Y-111021235D01*
X113080329Y-111012970D01*
X113058151Y-111002480D01*
X113037107Y-110989867D01*
X113017402Y-110975253D01*
X112999223Y-110958777D01*
X112982747Y-110940598D01*
X112968133Y-110920893D01*
X112955520Y-110899849D01*
X112945030Y-110877671D01*
X112936765Y-110854571D01*
X112930804Y-110830773D01*
X112927204Y-110806504D01*
X112926000Y-110782000D01*
X112926000Y-109182000D01*
X112927204Y-109157496D01*
X112930804Y-109133227D01*
X112936765Y-109109429D01*
X112945030Y-109086329D01*
X112955520Y-109064151D01*
X112968133Y-109043107D01*
X112982747Y-109023402D01*
X112999223Y-109005223D01*
X113017402Y-108988747D01*
X113037107Y-108974133D01*
X113058151Y-108961520D01*
X113080329Y-108951030D01*
X113103429Y-108942765D01*
X113127227Y-108936804D01*
X113151496Y-108933204D01*
X113176000Y-108932000D01*
X117276000Y-108932000D01*
X117300504Y-108933204D01*
X117300504Y-108933204D01*
G37*
D13*
X115226000Y-109982000D03*
D12*
X95504000Y-100838000D03*
X95504000Y-109888000D03*
X95504000Y-117442000D03*
X95504000Y-126492000D03*
X79756000Y-126238000D03*
X79756000Y-117188000D03*
X79756000Y-109888000D03*
X79756000Y-100838000D03*
D14*
X176276000Y-68260000D03*
X176276000Y-66360000D03*
X154686000Y-61082000D03*
X154686000Y-59182000D03*
X164084000Y-61280000D03*
X164084000Y-63180000D03*
X166878000Y-78110000D03*
X166878000Y-80010000D03*
D15*
X164592000Y-80010000D03*
X162692000Y-80010000D03*
D14*
X141478000Y-74356000D03*
X141478000Y-72456000D03*
X162560000Y-85720000D03*
X162560000Y-83820000D03*
D16*
X167862000Y-119126000D03*
X165862000Y-119126000D03*
D15*
X167828000Y-121666000D03*
X165928000Y-121666000D03*
D17*
X158242000Y-109220000D03*
X158242000Y-103240000D03*
D15*
X139568000Y-79248000D03*
X137668000Y-79248000D03*
D14*
X62484000Y-115194000D03*
X62484000Y-117094000D03*
D18*
X176276000Y-70624000D03*
X176276000Y-72124000D03*
D19*
X170180000Y-78232000D03*
X170180000Y-75032000D03*
X173736000Y-78232000D03*
X173736000Y-75032000D03*
D20*
X164414000Y-126492000D03*
X161214000Y-126492000D03*
X155194000Y-99568000D03*
X158394000Y-99568000D03*
X120498000Y-106172000D03*
X123698000Y-106172000D03*
D18*
X62484000Y-111530000D03*
X62484000Y-113030000D03*
D21*
X169418000Y-110018000D03*
X169418000Y-99568000D03*
M02*
