M48
INCH,TZ
T1C0.0157
T2C0.0197
T3C0.0281
T4C0.0307
T5C0.0315
T6C0.0394
T7C0.0433
T8C0.0437
T9C0.0512
T10C0.0571
%
G90
G05
T1
X60700Y-25500
X63500Y-24200
X68400Y-45200
X68500Y-42300
T2
X27500Y-41406
X27500Y-42194
X84100Y-41500
X84100Y-42287
X84000Y-47313
X84000Y-48100
X27300Y-47100
X27300Y-47887
T3
X56300Y-23100
X56300Y-25100
X57300Y-24100
T4
X59637Y-26600
X59637Y-27600
X59637Y-28600
X59637Y-29600
X62763Y-26600
X62763Y-27600
X62763Y-28600
X62763Y-29600
T5
X68700Y-49016
X68700Y-50984
T6
X24600Y-46800
X27300Y-49000
X31400Y-38100
X31400Y-51200
X37600Y-38000
X37600Y-51200
X46100Y-48800
X46200Y-44300
X57800Y-34300
X58800Y-34300
T7
X64000Y-35000
X65000Y-35000
X66000Y-35000
T8
X51400Y-41800
X51400Y-42800
X51400Y-43800
X51400Y-44800
X51400Y-46800
X51400Y-47800
X51400Y-48800
X51400Y-49800
X59400Y-41800
X59400Y-43300
X59400Y-44800
X59400Y-46800
X59400Y-48300
X59400Y-49800
T9
X42431Y-48800
X44400Y-48800
X64600Y-19200
X66569Y-19200
X82900Y-28631
X82900Y-30600
T10
X73714Y-35800
X80486Y-35800
X24600Y-35114
X24600Y-41886
T0
M30
